G04 #@! TF.FileFunction,Copper,L2,Bot,Signal*
%FSLAX46Y46*%
G04 Gerber Fmt 4.6, Leading zero omitted, Abs format (unit mm)*
G04 Created by KiCad (PCBNEW 4.0.7) date 04/22/18 15:44:28*
%MOMM*%
%LPD*%
G01*
G04 APERTURE LIST*
%ADD10C,0.100000*%
%ADD11R,2.000000X2.000000*%
%ADD12C,2.000000*%
%ADD13C,3.400000*%
%ADD14R,1.800000X1.800000*%
%ADD15C,1.800000*%
%ADD16R,1.500000X2.000000*%
%ADD17O,1.500000X2.000000*%
%ADD18R,1.500000X1.300000*%
%ADD19C,1.440000*%
%ADD20R,2.500000X1.600000*%
%ADD21O,2.500000X1.600000*%
%ADD22C,1.000000*%
%ADD23C,0.254000*%
G04 APERTURE END LIST*
D10*
D11*
X135890000Y-92710000D03*
D12*
X133350000Y-92710000D03*
D11*
X135890000Y-83820000D03*
D12*
X133350000Y-83820000D03*
D11*
X135890000Y-74930000D03*
D12*
X133350000Y-74930000D03*
D13*
X70000000Y-125000000D03*
X135000000Y-125000000D03*
X70000000Y-60000000D03*
X135000000Y-60000000D03*
D14*
X69850000Y-77470000D03*
D15*
X69850000Y-80010000D03*
D16*
X101600000Y-109220000D03*
D17*
X101600000Y-106680000D03*
X104140000Y-109220000D03*
X104140000Y-106680000D03*
X106680000Y-109220000D03*
X106680000Y-106680000D03*
D18*
X128350000Y-92710000D03*
X125650000Y-92710000D03*
X128350000Y-83820000D03*
X125650000Y-83820000D03*
X128350000Y-74930000D03*
X125650000Y-74930000D03*
D19*
X82550000Y-62230000D03*
X82550000Y-59690000D03*
X82550000Y-57150000D03*
D20*
X111760000Y-93980000D03*
D21*
X111760000Y-91440000D03*
X111760000Y-88900000D03*
X111760000Y-86360000D03*
X111760000Y-83820000D03*
X111760000Y-81280000D03*
X111760000Y-78740000D03*
X111760000Y-76200000D03*
X111760000Y-73660000D03*
X111760000Y-71120000D03*
X111760000Y-68580000D03*
X111760000Y-66040000D03*
X111760000Y-63500000D03*
X111760000Y-60960000D03*
X111760000Y-58420000D03*
X96520000Y-58420000D03*
X96520000Y-60960000D03*
X96520000Y-63500000D03*
X96520000Y-66040000D03*
X96520000Y-68580000D03*
X96520000Y-71120000D03*
X96520000Y-73660000D03*
X96520000Y-76200000D03*
X96520000Y-78740000D03*
X96520000Y-81280000D03*
X96520000Y-83820000D03*
X96520000Y-86360000D03*
X96520000Y-88900000D03*
X96520000Y-91440000D03*
X96520000Y-93980000D03*
D12*
X90170000Y-67310000D03*
X92710000Y-115570000D03*
X113030000Y-102870000D03*
X106680000Y-102870000D03*
X90170000Y-82550000D03*
X74930000Y-78740000D03*
X101600000Y-102870000D03*
X80010000Y-82550000D03*
D22*
X67310000Y-80010000D02*
X67310000Y-122310000D01*
X67310000Y-122310000D02*
X70000000Y-125000000D01*
X92710000Y-125000000D02*
X92710000Y-115570000D01*
X70000000Y-125000000D02*
X92710000Y-125000000D01*
X92710000Y-125000000D02*
X135000000Y-125000000D01*
X115570000Y-102870000D02*
X138430000Y-102870000D01*
X138430000Y-92710000D02*
X138430000Y-102870000D01*
X138430000Y-102870000D02*
X138430000Y-121570000D01*
X138430000Y-121570000D02*
X135000000Y-125000000D01*
X138430000Y-83820000D02*
X138430000Y-92710000D01*
X138430000Y-92710000D02*
X135890000Y-92710000D01*
X138430000Y-74930000D02*
X138430000Y-83820000D01*
X138430000Y-83820000D02*
X135890000Y-83820000D01*
X135000000Y-60000000D02*
X137470000Y-60000000D01*
X138430000Y-74930000D02*
X135890000Y-74930000D01*
X138430000Y-60960000D02*
X138430000Y-74930000D01*
X137470000Y-60000000D02*
X138430000Y-60960000D01*
X88900000Y-57150000D02*
X82550000Y-57150000D01*
X90170000Y-58420000D02*
X88900000Y-57150000D01*
X90170000Y-67310000D02*
X90170000Y-58420000D01*
X70000000Y-60000000D02*
X68270000Y-60000000D01*
X67310000Y-60960000D02*
X67310000Y-80010000D01*
X68270000Y-60000000D02*
X67310000Y-60960000D01*
X67310000Y-80010000D02*
X69850000Y-80010000D01*
X96520000Y-91440000D02*
X93980000Y-91440000D01*
X93980000Y-91440000D02*
X92710000Y-92710000D01*
X92710000Y-92710000D02*
X92710000Y-115570000D01*
X106680000Y-106680000D02*
X106680000Y-102870000D01*
X113030000Y-102870000D02*
X115570000Y-102870000D01*
X82550000Y-57150000D02*
X72850000Y-57150000D01*
X72850000Y-57150000D02*
X70000000Y-60000000D01*
X82550000Y-59690000D02*
X82550000Y-57150000D01*
X111760000Y-86360000D02*
X114300000Y-86360000D01*
X115570000Y-87630000D02*
X115570000Y-102870000D01*
X114300000Y-86360000D02*
X115570000Y-87630000D01*
X96520000Y-88900000D02*
X93980000Y-88900000D01*
X92710000Y-85090000D02*
X90170000Y-82550000D01*
X92710000Y-87630000D02*
X92710000Y-85090000D01*
X93980000Y-88900000D02*
X92710000Y-87630000D01*
X69850000Y-77470000D02*
X73660000Y-77470000D01*
X73660000Y-77470000D02*
X74930000Y-78740000D01*
X101600000Y-102870000D02*
X101600000Y-106680000D01*
X128350000Y-92710000D02*
X133350000Y-92710000D01*
X128350000Y-83820000D02*
X133350000Y-83820000D01*
X128350000Y-74930000D02*
X133350000Y-74930000D01*
X102870000Y-59690000D02*
X102870000Y-96520000D01*
X104140000Y-58420000D02*
X102870000Y-59690000D01*
X111760000Y-58420000D02*
X104140000Y-58420000D01*
X99060000Y-109220000D02*
X101600000Y-109220000D01*
X97790000Y-107950000D02*
X99060000Y-109220000D01*
X97790000Y-101600000D02*
X97790000Y-107950000D01*
X102870000Y-96520000D02*
X97790000Y-101600000D01*
X100330000Y-59690000D02*
X100330000Y-95250000D01*
X99060000Y-58420000D02*
X100330000Y-59690000D01*
X96520000Y-58420000D02*
X99060000Y-58420000D01*
X104140000Y-111760000D02*
X104140000Y-109220000D01*
X102870000Y-113030000D02*
X104140000Y-111760000D01*
X99060000Y-113030000D02*
X102870000Y-113030000D01*
X95250000Y-109220000D02*
X99060000Y-113030000D01*
X95250000Y-100330000D02*
X95250000Y-109220000D01*
X100330000Y-95250000D02*
X95250000Y-100330000D01*
X105410000Y-62230000D02*
X105410000Y-97790000D01*
X106680000Y-60960000D02*
X105410000Y-62230000D01*
X111760000Y-60960000D02*
X106680000Y-60960000D01*
X104140000Y-99060000D02*
X104140000Y-106680000D01*
X105410000Y-97790000D02*
X104140000Y-99060000D01*
X107950000Y-64770000D02*
X107950000Y-97790000D01*
X109220000Y-63500000D02*
X107950000Y-64770000D01*
X111760000Y-63500000D02*
X109220000Y-63500000D01*
X109220000Y-109220000D02*
X106680000Y-109220000D01*
X110490000Y-107950000D02*
X109220000Y-109220000D01*
X110490000Y-100330000D02*
X110490000Y-107950000D01*
X107950000Y-97790000D02*
X110490000Y-100330000D01*
X82550000Y-62230000D02*
X82550000Y-80010000D01*
X82550000Y-80010000D02*
X80010000Y-82550000D01*
X111760000Y-71120000D02*
X113030000Y-71120000D01*
X121920000Y-92710000D02*
X125650000Y-92710000D01*
X120650000Y-91440000D02*
X121920000Y-92710000D01*
X120650000Y-78740000D02*
X120650000Y-91440000D01*
X113030000Y-71120000D02*
X120650000Y-78740000D01*
X111760000Y-68580000D02*
X114300000Y-68580000D01*
X124460000Y-83820000D02*
X125650000Y-83820000D01*
X123190000Y-82550000D02*
X124460000Y-83820000D01*
X123190000Y-77470000D02*
X123190000Y-82550000D01*
X114300000Y-68580000D02*
X123190000Y-77470000D01*
X111760000Y-66040000D02*
X115570000Y-66040000D01*
X124460000Y-74930000D02*
X125650000Y-74930000D01*
X115570000Y-66040000D02*
X124460000Y-74930000D01*
D23*
G36*
X139290000Y-129290000D02*
X65710000Y-129290000D01*
X65710000Y-126658422D01*
X68521183Y-126658422D01*
X68705371Y-126997970D01*
X69568509Y-127341316D01*
X70497336Y-127328218D01*
X71294629Y-126997970D01*
X71478817Y-126658422D01*
X133521183Y-126658422D01*
X133705371Y-126997970D01*
X134568509Y-127341316D01*
X135497336Y-127328218D01*
X136294629Y-126997970D01*
X136478817Y-126658422D01*
X135000000Y-125179605D01*
X133521183Y-126658422D01*
X71478817Y-126658422D01*
X70000000Y-125179605D01*
X68521183Y-126658422D01*
X65710000Y-126658422D01*
X65710000Y-124568509D01*
X67658684Y-124568509D01*
X67671782Y-125497336D01*
X68002030Y-126294629D01*
X68341578Y-126478817D01*
X69820395Y-125000000D01*
X70179605Y-125000000D01*
X71658422Y-126478817D01*
X71997970Y-126294629D01*
X72341316Y-125431491D01*
X72329147Y-124568509D01*
X132658684Y-124568509D01*
X132671782Y-125497336D01*
X133002030Y-126294629D01*
X133341578Y-126478817D01*
X134820395Y-125000000D01*
X135179605Y-125000000D01*
X136658422Y-126478817D01*
X136997970Y-126294629D01*
X137341316Y-125431491D01*
X137328218Y-124502664D01*
X136997970Y-123705371D01*
X136658422Y-123521183D01*
X135179605Y-125000000D01*
X134820395Y-125000000D01*
X133341578Y-123521183D01*
X133002030Y-123705371D01*
X132658684Y-124568509D01*
X72329147Y-124568509D01*
X72328218Y-124502664D01*
X71997970Y-123705371D01*
X71658422Y-123521183D01*
X70179605Y-125000000D01*
X69820395Y-125000000D01*
X68341578Y-123521183D01*
X68002030Y-123705371D01*
X67658684Y-124568509D01*
X65710000Y-124568509D01*
X65710000Y-123341578D01*
X68521183Y-123341578D01*
X70000000Y-124820395D01*
X71478817Y-123341578D01*
X133521183Y-123341578D01*
X135000000Y-124820395D01*
X136478817Y-123341578D01*
X136294629Y-123002030D01*
X135431491Y-122658684D01*
X134502664Y-122671782D01*
X133705371Y-123002030D01*
X133521183Y-123341578D01*
X71478817Y-123341578D01*
X71294629Y-123002030D01*
X70431491Y-122658684D01*
X69502664Y-122671782D01*
X68705371Y-123002030D01*
X68521183Y-123341578D01*
X65710000Y-123341578D01*
X65710000Y-93980000D01*
X94598071Y-93980000D01*
X94707304Y-94529151D01*
X95018373Y-94994698D01*
X95483920Y-95305767D01*
X96033071Y-95415000D01*
X97006929Y-95415000D01*
X97556080Y-95305767D01*
X98021627Y-94994698D01*
X98332696Y-94529151D01*
X98441929Y-93980000D01*
X98332696Y-93430849D01*
X98021627Y-92965302D01*
X97642738Y-92712136D01*
X98074500Y-92364896D01*
X98344367Y-91871819D01*
X98361904Y-91789039D01*
X98239915Y-91567000D01*
X96647000Y-91567000D01*
X96647000Y-91587000D01*
X96393000Y-91587000D01*
X96393000Y-91567000D01*
X94800085Y-91567000D01*
X94678096Y-91789039D01*
X94695633Y-91871819D01*
X94965500Y-92364896D01*
X95397262Y-92712136D01*
X95018373Y-92965302D01*
X94707304Y-93430849D01*
X94598071Y-93980000D01*
X65710000Y-93980000D01*
X65710000Y-82873795D01*
X78374716Y-82873795D01*
X78623106Y-83474943D01*
X79082637Y-83935278D01*
X79683352Y-84184716D01*
X80333795Y-84185284D01*
X80934943Y-83936894D01*
X81395278Y-83477363D01*
X81644716Y-82876648D01*
X81644718Y-82873795D01*
X88534716Y-82873795D01*
X88783106Y-83474943D01*
X89242637Y-83935278D01*
X89843352Y-84184716D01*
X90199895Y-84185027D01*
X91575000Y-85560133D01*
X91575000Y-87630000D01*
X91661397Y-88064346D01*
X91907434Y-88432566D01*
X93177434Y-89702566D01*
X93545654Y-89948603D01*
X93980000Y-90035000D01*
X95198417Y-90035000D01*
X95397262Y-90167864D01*
X94965500Y-90515104D01*
X94695633Y-91008181D01*
X94678096Y-91090961D01*
X94800085Y-91313000D01*
X96393000Y-91313000D01*
X96393000Y-91293000D01*
X96647000Y-91293000D01*
X96647000Y-91313000D01*
X98239915Y-91313000D01*
X98361904Y-91090961D01*
X98344367Y-91008181D01*
X98074500Y-90515104D01*
X97642738Y-90167864D01*
X98021627Y-89914698D01*
X98332696Y-89449151D01*
X98441929Y-88900000D01*
X98332696Y-88350849D01*
X98021627Y-87885302D01*
X97639541Y-87630000D01*
X98021627Y-87374698D01*
X98332696Y-86909151D01*
X98441929Y-86360000D01*
X98332696Y-85810849D01*
X98021627Y-85345302D01*
X97639541Y-85090000D01*
X98021627Y-84834698D01*
X98332696Y-84369151D01*
X98441929Y-83820000D01*
X98332696Y-83270849D01*
X98021627Y-82805302D01*
X97639541Y-82550000D01*
X98021627Y-82294698D01*
X98332696Y-81829151D01*
X98441929Y-81280000D01*
X98332696Y-80730849D01*
X98021627Y-80265302D01*
X97639541Y-80010000D01*
X98021627Y-79754698D01*
X98332696Y-79289151D01*
X98441929Y-78740000D01*
X98332696Y-78190849D01*
X98021627Y-77725302D01*
X97639541Y-77470000D01*
X98021627Y-77214698D01*
X98332696Y-76749151D01*
X98441929Y-76200000D01*
X98332696Y-75650849D01*
X98021627Y-75185302D01*
X97639541Y-74930000D01*
X98021627Y-74674698D01*
X98332696Y-74209151D01*
X98441929Y-73660000D01*
X98332696Y-73110849D01*
X98021627Y-72645302D01*
X97639541Y-72390000D01*
X98021627Y-72134698D01*
X98332696Y-71669151D01*
X98441929Y-71120000D01*
X98332696Y-70570849D01*
X98021627Y-70105302D01*
X97639541Y-69850000D01*
X98021627Y-69594698D01*
X98332696Y-69129151D01*
X98441929Y-68580000D01*
X98332696Y-68030849D01*
X98021627Y-67565302D01*
X97639541Y-67310000D01*
X98021627Y-67054698D01*
X98332696Y-66589151D01*
X98441929Y-66040000D01*
X98332696Y-65490849D01*
X98021627Y-65025302D01*
X97639541Y-64770000D01*
X98021627Y-64514698D01*
X98332696Y-64049151D01*
X98441929Y-63500000D01*
X98332696Y-62950849D01*
X98021627Y-62485302D01*
X97639541Y-62230000D01*
X98021627Y-61974698D01*
X98332696Y-61509151D01*
X98441929Y-60960000D01*
X98332696Y-60410849D01*
X98021627Y-59945302D01*
X97639541Y-59690000D01*
X97841583Y-59555000D01*
X98589868Y-59555000D01*
X99195000Y-60160132D01*
X99195000Y-94779868D01*
X94447434Y-99527434D01*
X94201397Y-99895654D01*
X94115000Y-100330000D01*
X94115000Y-109220000D01*
X94201397Y-109654346D01*
X94447434Y-110022566D01*
X98257434Y-113832566D01*
X98625655Y-114078604D01*
X99060000Y-114165000D01*
X102870000Y-114165000D01*
X103304346Y-114078603D01*
X103672566Y-113832566D01*
X104942566Y-112562566D01*
X105166494Y-112227434D01*
X105188603Y-112194346D01*
X105275000Y-111760000D01*
X105275000Y-110248418D01*
X105410000Y-110046376D01*
X105700657Y-110481375D01*
X106149983Y-110781605D01*
X106680000Y-110887032D01*
X107210017Y-110781605D01*
X107659343Y-110481375D01*
X107743784Y-110355000D01*
X109220000Y-110355000D01*
X109654346Y-110268603D01*
X110022566Y-110022566D01*
X111292566Y-108752566D01*
X111516494Y-108417434D01*
X111538603Y-108384346D01*
X111625000Y-107950000D01*
X111625000Y-100330000D01*
X111538603Y-99895654D01*
X111516494Y-99862566D01*
X111292566Y-99527433D01*
X109085000Y-97319868D01*
X109085000Y-88900000D01*
X109838071Y-88900000D01*
X109947304Y-89449151D01*
X110258373Y-89914698D01*
X110640459Y-90170000D01*
X110258373Y-90425302D01*
X109947304Y-90890849D01*
X109838071Y-91440000D01*
X109947304Y-91989151D01*
X110258373Y-92454698D01*
X110404587Y-92552395D01*
X110274683Y-92576838D01*
X110058559Y-92715910D01*
X109913569Y-92928110D01*
X109862560Y-93180000D01*
X109862560Y-94780000D01*
X109906838Y-95015317D01*
X110045910Y-95231441D01*
X110258110Y-95376431D01*
X110510000Y-95427440D01*
X113010000Y-95427440D01*
X113245317Y-95383162D01*
X113461441Y-95244090D01*
X113606431Y-95031890D01*
X113657440Y-94780000D01*
X113657440Y-93180000D01*
X113613162Y-92944683D01*
X113474090Y-92728559D01*
X113261890Y-92583569D01*
X113113677Y-92553555D01*
X113261627Y-92454698D01*
X113572696Y-91989151D01*
X113681929Y-91440000D01*
X113572696Y-90890849D01*
X113261627Y-90425302D01*
X112879541Y-90170000D01*
X113261627Y-89914698D01*
X113572696Y-89449151D01*
X113681929Y-88900000D01*
X113572696Y-88350849D01*
X113261627Y-87885302D01*
X112882738Y-87632136D01*
X113314500Y-87284896D01*
X113584367Y-86791819D01*
X113601904Y-86709039D01*
X113479915Y-86487000D01*
X111887000Y-86487000D01*
X111887000Y-86507000D01*
X111633000Y-86507000D01*
X111633000Y-86487000D01*
X110040085Y-86487000D01*
X109918096Y-86709039D01*
X109935633Y-86791819D01*
X110205500Y-87284896D01*
X110637262Y-87632136D01*
X110258373Y-87885302D01*
X109947304Y-88350849D01*
X109838071Y-88900000D01*
X109085000Y-88900000D01*
X109085000Y-65240132D01*
X109690132Y-64635000D01*
X110438417Y-64635000D01*
X110640459Y-64770000D01*
X110258373Y-65025302D01*
X109947304Y-65490849D01*
X109838071Y-66040000D01*
X109947304Y-66589151D01*
X110258373Y-67054698D01*
X110640459Y-67310000D01*
X110258373Y-67565302D01*
X109947304Y-68030849D01*
X109838071Y-68580000D01*
X109947304Y-69129151D01*
X110258373Y-69594698D01*
X110640459Y-69850000D01*
X110258373Y-70105302D01*
X109947304Y-70570849D01*
X109838071Y-71120000D01*
X109947304Y-71669151D01*
X110258373Y-72134698D01*
X110640459Y-72390000D01*
X110258373Y-72645302D01*
X109947304Y-73110849D01*
X109838071Y-73660000D01*
X109947304Y-74209151D01*
X110258373Y-74674698D01*
X110640459Y-74930000D01*
X110258373Y-75185302D01*
X109947304Y-75650849D01*
X109838071Y-76200000D01*
X109947304Y-76749151D01*
X110258373Y-77214698D01*
X110640459Y-77470000D01*
X110258373Y-77725302D01*
X109947304Y-78190849D01*
X109838071Y-78740000D01*
X109947304Y-79289151D01*
X110258373Y-79754698D01*
X110640459Y-80010000D01*
X110258373Y-80265302D01*
X109947304Y-80730849D01*
X109838071Y-81280000D01*
X109947304Y-81829151D01*
X110258373Y-82294698D01*
X110640459Y-82550000D01*
X110258373Y-82805302D01*
X109947304Y-83270849D01*
X109838071Y-83820000D01*
X109947304Y-84369151D01*
X110258373Y-84834698D01*
X110637262Y-85087864D01*
X110205500Y-85435104D01*
X109935633Y-85928181D01*
X109918096Y-86010961D01*
X110040085Y-86233000D01*
X111633000Y-86233000D01*
X111633000Y-86213000D01*
X111887000Y-86213000D01*
X111887000Y-86233000D01*
X113479915Y-86233000D01*
X113601904Y-86010961D01*
X113584367Y-85928181D01*
X113314500Y-85435104D01*
X112882738Y-85087864D01*
X113261627Y-84834698D01*
X113572696Y-84369151D01*
X113681929Y-83820000D01*
X113572696Y-83270849D01*
X113261627Y-82805302D01*
X112879541Y-82550000D01*
X113261627Y-82294698D01*
X113572696Y-81829151D01*
X113681929Y-81280000D01*
X113572696Y-80730849D01*
X113261627Y-80265302D01*
X112879541Y-80010000D01*
X113261627Y-79754698D01*
X113572696Y-79289151D01*
X113681929Y-78740000D01*
X113572696Y-78190849D01*
X113261627Y-77725302D01*
X112879541Y-77470000D01*
X113261627Y-77214698D01*
X113572696Y-76749151D01*
X113681929Y-76200000D01*
X113572696Y-75650849D01*
X113261627Y-75185302D01*
X112879541Y-74930000D01*
X113261627Y-74674698D01*
X113572696Y-74209151D01*
X113681929Y-73660000D01*
X113611674Y-73306806D01*
X119515000Y-79210132D01*
X119515000Y-91440000D01*
X119601397Y-91874346D01*
X119847434Y-92242566D01*
X121117434Y-93512566D01*
X121485654Y-93758603D01*
X121920000Y-93845000D01*
X124485025Y-93845000D01*
X124648110Y-93956431D01*
X124900000Y-94007440D01*
X126400000Y-94007440D01*
X126635317Y-93963162D01*
X126851441Y-93824090D01*
X126996431Y-93611890D01*
X126999081Y-93598803D01*
X127135910Y-93811441D01*
X127348110Y-93956431D01*
X127600000Y-94007440D01*
X129100000Y-94007440D01*
X129335317Y-93963162D01*
X129518946Y-93845000D01*
X132172796Y-93845000D01*
X132422637Y-94095278D01*
X133023352Y-94344716D01*
X133673795Y-94345284D01*
X134274943Y-94096894D01*
X134337196Y-94034749D01*
X134351673Y-94069699D01*
X134530302Y-94248327D01*
X134763691Y-94345000D01*
X135604250Y-94345000D01*
X135763000Y-94186250D01*
X135763000Y-92837000D01*
X136017000Y-92837000D01*
X136017000Y-94186250D01*
X136175750Y-94345000D01*
X137016309Y-94345000D01*
X137249698Y-94248327D01*
X137428327Y-94069699D01*
X137525000Y-93836310D01*
X137525000Y-92995750D01*
X137366250Y-92837000D01*
X136017000Y-92837000D01*
X135763000Y-92837000D01*
X135743000Y-92837000D01*
X135743000Y-92583000D01*
X135763000Y-92583000D01*
X135763000Y-91233750D01*
X136017000Y-91233750D01*
X136017000Y-92583000D01*
X137366250Y-92583000D01*
X137525000Y-92424250D01*
X137525000Y-91583690D01*
X137428327Y-91350301D01*
X137249698Y-91171673D01*
X137016309Y-91075000D01*
X136175750Y-91075000D01*
X136017000Y-91233750D01*
X135763000Y-91233750D01*
X135604250Y-91075000D01*
X134763691Y-91075000D01*
X134530302Y-91171673D01*
X134351673Y-91350301D01*
X134337369Y-91384833D01*
X134277363Y-91324722D01*
X133676648Y-91075284D01*
X133026205Y-91074716D01*
X132425057Y-91323106D01*
X132172722Y-91575000D01*
X129514975Y-91575000D01*
X129351890Y-91463569D01*
X129100000Y-91412560D01*
X127600000Y-91412560D01*
X127364683Y-91456838D01*
X127148559Y-91595910D01*
X127003569Y-91808110D01*
X127000919Y-91821197D01*
X126864090Y-91608559D01*
X126651890Y-91463569D01*
X126400000Y-91412560D01*
X124900000Y-91412560D01*
X124664683Y-91456838D01*
X124481054Y-91575000D01*
X122390132Y-91575000D01*
X121785000Y-90969868D01*
X121785000Y-78740000D01*
X121698603Y-78305654D01*
X121452566Y-77937434D01*
X113832566Y-70317434D01*
X113515088Y-70105302D01*
X113464346Y-70071397D01*
X113103447Y-69999610D01*
X112879541Y-69850000D01*
X113081583Y-69715000D01*
X113829868Y-69715000D01*
X122055000Y-77940133D01*
X122055000Y-82550000D01*
X122141397Y-82984346D01*
X122387434Y-83352566D01*
X123657434Y-84622566D01*
X124025654Y-84868603D01*
X124460000Y-84955000D01*
X124485025Y-84955000D01*
X124648110Y-85066431D01*
X124900000Y-85117440D01*
X126400000Y-85117440D01*
X126635317Y-85073162D01*
X126851441Y-84934090D01*
X126996431Y-84721890D01*
X126999081Y-84708803D01*
X127135910Y-84921441D01*
X127348110Y-85066431D01*
X127600000Y-85117440D01*
X129100000Y-85117440D01*
X129335317Y-85073162D01*
X129518946Y-84955000D01*
X132172796Y-84955000D01*
X132422637Y-85205278D01*
X133023352Y-85454716D01*
X133673795Y-85455284D01*
X134274943Y-85206894D01*
X134337196Y-85144749D01*
X134351673Y-85179699D01*
X134530302Y-85358327D01*
X134763691Y-85455000D01*
X135604250Y-85455000D01*
X135763000Y-85296250D01*
X135763000Y-83947000D01*
X136017000Y-83947000D01*
X136017000Y-85296250D01*
X136175750Y-85455000D01*
X137016309Y-85455000D01*
X137249698Y-85358327D01*
X137428327Y-85179699D01*
X137525000Y-84946310D01*
X137525000Y-84105750D01*
X137366250Y-83947000D01*
X136017000Y-83947000D01*
X135763000Y-83947000D01*
X135743000Y-83947000D01*
X135743000Y-83693000D01*
X135763000Y-83693000D01*
X135763000Y-82343750D01*
X136017000Y-82343750D01*
X136017000Y-83693000D01*
X137366250Y-83693000D01*
X137525000Y-83534250D01*
X137525000Y-82693690D01*
X137428327Y-82460301D01*
X137249698Y-82281673D01*
X137016309Y-82185000D01*
X136175750Y-82185000D01*
X136017000Y-82343750D01*
X135763000Y-82343750D01*
X135604250Y-82185000D01*
X134763691Y-82185000D01*
X134530302Y-82281673D01*
X134351673Y-82460301D01*
X134337369Y-82494833D01*
X134277363Y-82434722D01*
X133676648Y-82185284D01*
X133026205Y-82184716D01*
X132425057Y-82433106D01*
X132172722Y-82685000D01*
X129514975Y-82685000D01*
X129351890Y-82573569D01*
X129100000Y-82522560D01*
X127600000Y-82522560D01*
X127364683Y-82566838D01*
X127148559Y-82705910D01*
X127003569Y-82918110D01*
X127000919Y-82931197D01*
X126864090Y-82718559D01*
X126651890Y-82573569D01*
X126400000Y-82522560D01*
X124900000Y-82522560D01*
X124788645Y-82543513D01*
X124325000Y-82079868D01*
X124325000Y-77470000D01*
X124301748Y-77353106D01*
X124238604Y-77035655D01*
X123992567Y-76667434D01*
X115102566Y-67777434D01*
X114785088Y-67565302D01*
X114734346Y-67531397D01*
X114300000Y-67445000D01*
X113081583Y-67445000D01*
X112879541Y-67310000D01*
X113081583Y-67175000D01*
X115099868Y-67175000D01*
X123657434Y-75732567D01*
X124025655Y-75978604D01*
X124460000Y-76065000D01*
X124485025Y-76065000D01*
X124648110Y-76176431D01*
X124900000Y-76227440D01*
X126400000Y-76227440D01*
X126635317Y-76183162D01*
X126851441Y-76044090D01*
X126996431Y-75831890D01*
X126999081Y-75818803D01*
X127135910Y-76031441D01*
X127348110Y-76176431D01*
X127600000Y-76227440D01*
X129100000Y-76227440D01*
X129335317Y-76183162D01*
X129518946Y-76065000D01*
X132172796Y-76065000D01*
X132422637Y-76315278D01*
X133023352Y-76564716D01*
X133673795Y-76565284D01*
X134274943Y-76316894D01*
X134337196Y-76254749D01*
X134351673Y-76289699D01*
X134530302Y-76468327D01*
X134763691Y-76565000D01*
X135604250Y-76565000D01*
X135763000Y-76406250D01*
X135763000Y-75057000D01*
X136017000Y-75057000D01*
X136017000Y-76406250D01*
X136175750Y-76565000D01*
X137016309Y-76565000D01*
X137249698Y-76468327D01*
X137428327Y-76289699D01*
X137525000Y-76056310D01*
X137525000Y-75215750D01*
X137366250Y-75057000D01*
X136017000Y-75057000D01*
X135763000Y-75057000D01*
X135743000Y-75057000D01*
X135743000Y-74803000D01*
X135763000Y-74803000D01*
X135763000Y-73453750D01*
X136017000Y-73453750D01*
X136017000Y-74803000D01*
X137366250Y-74803000D01*
X137525000Y-74644250D01*
X137525000Y-73803690D01*
X137428327Y-73570301D01*
X137249698Y-73391673D01*
X137016309Y-73295000D01*
X136175750Y-73295000D01*
X136017000Y-73453750D01*
X135763000Y-73453750D01*
X135604250Y-73295000D01*
X134763691Y-73295000D01*
X134530302Y-73391673D01*
X134351673Y-73570301D01*
X134337369Y-73604833D01*
X134277363Y-73544722D01*
X133676648Y-73295284D01*
X133026205Y-73294716D01*
X132425057Y-73543106D01*
X132172722Y-73795000D01*
X129514975Y-73795000D01*
X129351890Y-73683569D01*
X129100000Y-73632560D01*
X127600000Y-73632560D01*
X127364683Y-73676838D01*
X127148559Y-73815910D01*
X127003569Y-74028110D01*
X127000919Y-74041197D01*
X126864090Y-73828559D01*
X126651890Y-73683569D01*
X126400000Y-73632560D01*
X124900000Y-73632560D01*
X124788646Y-73653513D01*
X116372566Y-65237434D01*
X116055088Y-65025302D01*
X116004346Y-64991397D01*
X115570000Y-64905000D01*
X113081583Y-64905000D01*
X112879541Y-64770000D01*
X113261627Y-64514698D01*
X113572696Y-64049151D01*
X113681929Y-63500000D01*
X113572696Y-62950849D01*
X113261627Y-62485302D01*
X112879541Y-62230000D01*
X113261627Y-61974698D01*
X113472956Y-61658422D01*
X133521183Y-61658422D01*
X133705371Y-61997970D01*
X134568509Y-62341316D01*
X135497336Y-62328218D01*
X136294629Y-61997970D01*
X136478817Y-61658422D01*
X135000000Y-60179605D01*
X133521183Y-61658422D01*
X113472956Y-61658422D01*
X113572696Y-61509151D01*
X113681929Y-60960000D01*
X113572696Y-60410849D01*
X113261627Y-59945302D01*
X112879541Y-59690000D01*
X113061364Y-59568509D01*
X132658684Y-59568509D01*
X132671782Y-60497336D01*
X133002030Y-61294629D01*
X133341578Y-61478817D01*
X134820395Y-60000000D01*
X135179605Y-60000000D01*
X136658422Y-61478817D01*
X136997970Y-61294629D01*
X137341316Y-60431491D01*
X137328218Y-59502664D01*
X136997970Y-58705371D01*
X136658422Y-58521183D01*
X135179605Y-60000000D01*
X134820395Y-60000000D01*
X133341578Y-58521183D01*
X133002030Y-58705371D01*
X132658684Y-59568509D01*
X113061364Y-59568509D01*
X113261627Y-59434698D01*
X113572696Y-58969151D01*
X113681929Y-58420000D01*
X113666330Y-58341578D01*
X133521183Y-58341578D01*
X135000000Y-59820395D01*
X136478817Y-58341578D01*
X136294629Y-58002030D01*
X135431491Y-57658684D01*
X134502664Y-57671782D01*
X133705371Y-58002030D01*
X133521183Y-58341578D01*
X113666330Y-58341578D01*
X113572696Y-57870849D01*
X113261627Y-57405302D01*
X112796080Y-57094233D01*
X112246929Y-56985000D01*
X111273071Y-56985000D01*
X110723920Y-57094233D01*
X110438417Y-57285000D01*
X104140000Y-57285000D01*
X103705654Y-57371397D01*
X103337434Y-57617434D01*
X102067434Y-58887434D01*
X101821397Y-59255654D01*
X101735000Y-59690000D01*
X101735000Y-96049868D01*
X96987434Y-100797434D01*
X96741397Y-101165654D01*
X96655000Y-101600000D01*
X96655000Y-107950000D01*
X96741397Y-108384346D01*
X96763506Y-108417434D01*
X96987434Y-108752566D01*
X98257434Y-110022566D01*
X98625654Y-110268603D01*
X99060000Y-110355000D01*
X100227962Y-110355000D01*
X100246838Y-110455317D01*
X100385910Y-110671441D01*
X100598110Y-110816431D01*
X100850000Y-110867440D01*
X102350000Y-110867440D01*
X102585317Y-110823162D01*
X102801441Y-110684090D01*
X102946431Y-110471890D01*
X102994782Y-110233126D01*
X103005000Y-110248418D01*
X103005000Y-111289868D01*
X102399868Y-111895000D01*
X99530132Y-111895000D01*
X96385000Y-108749868D01*
X96385000Y-100800132D01*
X101132566Y-96052566D01*
X101356494Y-95717434D01*
X101378603Y-95684346D01*
X101465000Y-95250000D01*
X101465000Y-59690000D01*
X101378603Y-59255654D01*
X101132566Y-58887434D01*
X99862566Y-57617434D01*
X99494346Y-57371397D01*
X99060000Y-57285000D01*
X97841583Y-57285000D01*
X97556080Y-57094233D01*
X97006929Y-56985000D01*
X96033071Y-56985000D01*
X95483920Y-57094233D01*
X95018373Y-57405302D01*
X94707304Y-57870849D01*
X94598071Y-58420000D01*
X94707304Y-58969151D01*
X95018373Y-59434698D01*
X95400459Y-59690000D01*
X95018373Y-59945302D01*
X94707304Y-60410849D01*
X94598071Y-60960000D01*
X94707304Y-61509151D01*
X95018373Y-61974698D01*
X95400459Y-62230000D01*
X95018373Y-62485302D01*
X94707304Y-62950849D01*
X94598071Y-63500000D01*
X94707304Y-64049151D01*
X95018373Y-64514698D01*
X95400459Y-64770000D01*
X95018373Y-65025302D01*
X94707304Y-65490849D01*
X94598071Y-66040000D01*
X94707304Y-66589151D01*
X95018373Y-67054698D01*
X95400459Y-67310000D01*
X95018373Y-67565302D01*
X94707304Y-68030849D01*
X94598071Y-68580000D01*
X94707304Y-69129151D01*
X95018373Y-69594698D01*
X95400459Y-69850000D01*
X95018373Y-70105302D01*
X94707304Y-70570849D01*
X94598071Y-71120000D01*
X94707304Y-71669151D01*
X95018373Y-72134698D01*
X95400459Y-72390000D01*
X95018373Y-72645302D01*
X94707304Y-73110849D01*
X94598071Y-73660000D01*
X94707304Y-74209151D01*
X95018373Y-74674698D01*
X95400459Y-74930000D01*
X95018373Y-75185302D01*
X94707304Y-75650849D01*
X94598071Y-76200000D01*
X94707304Y-76749151D01*
X95018373Y-77214698D01*
X95400459Y-77470000D01*
X95018373Y-77725302D01*
X94707304Y-78190849D01*
X94598071Y-78740000D01*
X94707304Y-79289151D01*
X95018373Y-79754698D01*
X95400459Y-80010000D01*
X95018373Y-80265302D01*
X94707304Y-80730849D01*
X94598071Y-81280000D01*
X94707304Y-81829151D01*
X95018373Y-82294698D01*
X95400459Y-82550000D01*
X95018373Y-82805302D01*
X94707304Y-83270849D01*
X94598071Y-83820000D01*
X94707304Y-84369151D01*
X95018373Y-84834698D01*
X95400459Y-85090000D01*
X95018373Y-85345302D01*
X94707304Y-85810849D01*
X94598071Y-86360000D01*
X94707304Y-86909151D01*
X95018373Y-87374698D01*
X95400459Y-87630000D01*
X95198417Y-87765000D01*
X94450132Y-87765000D01*
X93845000Y-87159868D01*
X93845000Y-85090000D01*
X93758603Y-84655654D01*
X93567168Y-84369151D01*
X93512566Y-84287433D01*
X91804975Y-82579843D01*
X91805284Y-82226205D01*
X91556894Y-81625057D01*
X91097363Y-81164722D01*
X90496648Y-80915284D01*
X89846205Y-80914716D01*
X89245057Y-81163106D01*
X88784722Y-81622637D01*
X88535284Y-82223352D01*
X88534716Y-82873795D01*
X81644718Y-82873795D01*
X81645027Y-82520105D01*
X83352566Y-80812567D01*
X83598603Y-80444346D01*
X83634217Y-80265302D01*
X83685000Y-80010000D01*
X83685000Y-63011568D01*
X83698043Y-62998548D01*
X83904764Y-62500709D01*
X83905235Y-61961656D01*
X83699383Y-61463457D01*
X83318548Y-61081957D01*
X83040884Y-60966661D01*
X83255869Y-60877611D01*
X83320169Y-60639774D01*
X82550000Y-59869605D01*
X81779831Y-60639774D01*
X81844131Y-60877611D01*
X82076172Y-60959669D01*
X81783457Y-61080617D01*
X81401957Y-61461452D01*
X81195236Y-61959291D01*
X81194765Y-62498344D01*
X81400617Y-62996543D01*
X81415000Y-63010951D01*
X81415000Y-79539867D01*
X80039843Y-80915025D01*
X79686205Y-80914716D01*
X79085057Y-81163106D01*
X78624722Y-81622637D01*
X78375284Y-82223352D01*
X78374716Y-82873795D01*
X65710000Y-82873795D01*
X65710000Y-81090159D01*
X68949446Y-81090159D01*
X69035852Y-81346643D01*
X69609336Y-81556458D01*
X70219460Y-81530839D01*
X70664148Y-81346643D01*
X70750554Y-81090159D01*
X69850000Y-80189605D01*
X68949446Y-81090159D01*
X65710000Y-81090159D01*
X65710000Y-76570000D01*
X68302560Y-76570000D01*
X68302560Y-78370000D01*
X68346838Y-78605317D01*
X68485910Y-78821441D01*
X68689574Y-78960598D01*
X68655282Y-78994890D01*
X68769839Y-79109447D01*
X68513357Y-79195852D01*
X68303542Y-79769336D01*
X68329161Y-80379460D01*
X68513357Y-80824148D01*
X68769841Y-80910554D01*
X69670395Y-80010000D01*
X69656253Y-79995858D01*
X69835858Y-79816253D01*
X69850000Y-79830395D01*
X69864143Y-79816253D01*
X70043748Y-79995858D01*
X70029605Y-80010000D01*
X70930159Y-80910554D01*
X71186643Y-80824148D01*
X71396458Y-80250664D01*
X71370839Y-79640540D01*
X71186643Y-79195852D01*
X70930161Y-79109447D01*
X71044718Y-78994890D01*
X71008240Y-78958412D01*
X71201441Y-78834090D01*
X71346431Y-78621890D01*
X71349851Y-78605000D01*
X73189868Y-78605000D01*
X73295025Y-78710157D01*
X73294716Y-79063795D01*
X73543106Y-79664943D01*
X74002637Y-80125278D01*
X74603352Y-80374716D01*
X75253795Y-80375284D01*
X75854943Y-80126894D01*
X76315278Y-79667363D01*
X76564716Y-79066648D01*
X76565284Y-78416205D01*
X76316894Y-77815057D01*
X75857363Y-77354722D01*
X75256648Y-77105284D01*
X74900105Y-77104973D01*
X74462566Y-76667434D01*
X74094346Y-76421397D01*
X73660000Y-76335000D01*
X71353222Y-76335000D01*
X71353162Y-76334683D01*
X71214090Y-76118559D01*
X71001890Y-75973569D01*
X70750000Y-75922560D01*
X68950000Y-75922560D01*
X68714683Y-75966838D01*
X68498559Y-76105910D01*
X68353569Y-76318110D01*
X68302560Y-76570000D01*
X65710000Y-76570000D01*
X65710000Y-61658422D01*
X68521183Y-61658422D01*
X68705371Y-61997970D01*
X69568509Y-62341316D01*
X70497336Y-62328218D01*
X71294629Y-61997970D01*
X71478817Y-61658422D01*
X70000000Y-60179605D01*
X68521183Y-61658422D01*
X65710000Y-61658422D01*
X65710000Y-59568509D01*
X67658684Y-59568509D01*
X67671782Y-60497336D01*
X68002030Y-61294629D01*
X68341578Y-61478817D01*
X69820395Y-60000000D01*
X70179605Y-60000000D01*
X71658422Y-61478817D01*
X71997970Y-61294629D01*
X72341316Y-60431491D01*
X72328218Y-59502664D01*
X72323943Y-59492342D01*
X81182667Y-59492342D01*
X81211108Y-60030644D01*
X81362389Y-60395869D01*
X81600226Y-60460169D01*
X82370395Y-59690000D01*
X82729605Y-59690000D01*
X83499774Y-60460169D01*
X83737611Y-60395869D01*
X83917333Y-59887658D01*
X83888892Y-59349356D01*
X83737611Y-58984131D01*
X83499774Y-58919831D01*
X82729605Y-59690000D01*
X82370395Y-59690000D01*
X81600226Y-58919831D01*
X81362389Y-58984131D01*
X81182667Y-59492342D01*
X72323943Y-59492342D01*
X71997970Y-58705371D01*
X71658422Y-58521183D01*
X70179605Y-60000000D01*
X69820395Y-60000000D01*
X68341578Y-58521183D01*
X68002030Y-58705371D01*
X67658684Y-59568509D01*
X65710000Y-59568509D01*
X65710000Y-58341578D01*
X68521183Y-58341578D01*
X70000000Y-59820395D01*
X71478817Y-58341578D01*
X71347651Y-58099774D01*
X81779831Y-58099774D01*
X81844131Y-58337611D01*
X82058728Y-58413500D01*
X81844131Y-58502389D01*
X81779831Y-58740226D01*
X82550000Y-59510395D01*
X83320169Y-58740226D01*
X83255869Y-58502389D01*
X83041272Y-58426500D01*
X83255869Y-58337611D01*
X83320169Y-58099774D01*
X82550000Y-57329605D01*
X81779831Y-58099774D01*
X71347651Y-58099774D01*
X71294629Y-58002030D01*
X70431491Y-57658684D01*
X69502664Y-57671782D01*
X68705371Y-58002030D01*
X68521183Y-58341578D01*
X65710000Y-58341578D01*
X65710000Y-56952342D01*
X81182667Y-56952342D01*
X81211108Y-57490644D01*
X81362389Y-57855869D01*
X81600226Y-57920169D01*
X82370395Y-57150000D01*
X82729605Y-57150000D01*
X83499774Y-57920169D01*
X83737611Y-57855869D01*
X83917333Y-57347658D01*
X83888892Y-56809356D01*
X83737611Y-56444131D01*
X83499774Y-56379831D01*
X82729605Y-57150000D01*
X82370395Y-57150000D01*
X81600226Y-56379831D01*
X81362389Y-56444131D01*
X81182667Y-56952342D01*
X65710000Y-56952342D01*
X65710000Y-56200226D01*
X81779831Y-56200226D01*
X82550000Y-56970395D01*
X83320169Y-56200226D01*
X83255869Y-55962389D01*
X82747658Y-55782667D01*
X82209356Y-55811108D01*
X81844131Y-55962389D01*
X81779831Y-56200226D01*
X65710000Y-56200226D01*
X65710000Y-55710000D01*
X139290000Y-55710000D01*
X139290000Y-129290000D01*
X139290000Y-129290000D01*
G37*
X139290000Y-129290000D02*
X65710000Y-129290000D01*
X65710000Y-126658422D01*
X68521183Y-126658422D01*
X68705371Y-126997970D01*
X69568509Y-127341316D01*
X70497336Y-127328218D01*
X71294629Y-126997970D01*
X71478817Y-126658422D01*
X133521183Y-126658422D01*
X133705371Y-126997970D01*
X134568509Y-127341316D01*
X135497336Y-127328218D01*
X136294629Y-126997970D01*
X136478817Y-126658422D01*
X135000000Y-125179605D01*
X133521183Y-126658422D01*
X71478817Y-126658422D01*
X70000000Y-125179605D01*
X68521183Y-126658422D01*
X65710000Y-126658422D01*
X65710000Y-124568509D01*
X67658684Y-124568509D01*
X67671782Y-125497336D01*
X68002030Y-126294629D01*
X68341578Y-126478817D01*
X69820395Y-125000000D01*
X70179605Y-125000000D01*
X71658422Y-126478817D01*
X71997970Y-126294629D01*
X72341316Y-125431491D01*
X72329147Y-124568509D01*
X132658684Y-124568509D01*
X132671782Y-125497336D01*
X133002030Y-126294629D01*
X133341578Y-126478817D01*
X134820395Y-125000000D01*
X135179605Y-125000000D01*
X136658422Y-126478817D01*
X136997970Y-126294629D01*
X137341316Y-125431491D01*
X137328218Y-124502664D01*
X136997970Y-123705371D01*
X136658422Y-123521183D01*
X135179605Y-125000000D01*
X134820395Y-125000000D01*
X133341578Y-123521183D01*
X133002030Y-123705371D01*
X132658684Y-124568509D01*
X72329147Y-124568509D01*
X72328218Y-124502664D01*
X71997970Y-123705371D01*
X71658422Y-123521183D01*
X70179605Y-125000000D01*
X69820395Y-125000000D01*
X68341578Y-123521183D01*
X68002030Y-123705371D01*
X67658684Y-124568509D01*
X65710000Y-124568509D01*
X65710000Y-123341578D01*
X68521183Y-123341578D01*
X70000000Y-124820395D01*
X71478817Y-123341578D01*
X133521183Y-123341578D01*
X135000000Y-124820395D01*
X136478817Y-123341578D01*
X136294629Y-123002030D01*
X135431491Y-122658684D01*
X134502664Y-122671782D01*
X133705371Y-123002030D01*
X133521183Y-123341578D01*
X71478817Y-123341578D01*
X71294629Y-123002030D01*
X70431491Y-122658684D01*
X69502664Y-122671782D01*
X68705371Y-123002030D01*
X68521183Y-123341578D01*
X65710000Y-123341578D01*
X65710000Y-93980000D01*
X94598071Y-93980000D01*
X94707304Y-94529151D01*
X95018373Y-94994698D01*
X95483920Y-95305767D01*
X96033071Y-95415000D01*
X97006929Y-95415000D01*
X97556080Y-95305767D01*
X98021627Y-94994698D01*
X98332696Y-94529151D01*
X98441929Y-93980000D01*
X98332696Y-93430849D01*
X98021627Y-92965302D01*
X97642738Y-92712136D01*
X98074500Y-92364896D01*
X98344367Y-91871819D01*
X98361904Y-91789039D01*
X98239915Y-91567000D01*
X96647000Y-91567000D01*
X96647000Y-91587000D01*
X96393000Y-91587000D01*
X96393000Y-91567000D01*
X94800085Y-91567000D01*
X94678096Y-91789039D01*
X94695633Y-91871819D01*
X94965500Y-92364896D01*
X95397262Y-92712136D01*
X95018373Y-92965302D01*
X94707304Y-93430849D01*
X94598071Y-93980000D01*
X65710000Y-93980000D01*
X65710000Y-82873795D01*
X78374716Y-82873795D01*
X78623106Y-83474943D01*
X79082637Y-83935278D01*
X79683352Y-84184716D01*
X80333795Y-84185284D01*
X80934943Y-83936894D01*
X81395278Y-83477363D01*
X81644716Y-82876648D01*
X81644718Y-82873795D01*
X88534716Y-82873795D01*
X88783106Y-83474943D01*
X89242637Y-83935278D01*
X89843352Y-84184716D01*
X90199895Y-84185027D01*
X91575000Y-85560133D01*
X91575000Y-87630000D01*
X91661397Y-88064346D01*
X91907434Y-88432566D01*
X93177434Y-89702566D01*
X93545654Y-89948603D01*
X93980000Y-90035000D01*
X95198417Y-90035000D01*
X95397262Y-90167864D01*
X94965500Y-90515104D01*
X94695633Y-91008181D01*
X94678096Y-91090961D01*
X94800085Y-91313000D01*
X96393000Y-91313000D01*
X96393000Y-91293000D01*
X96647000Y-91293000D01*
X96647000Y-91313000D01*
X98239915Y-91313000D01*
X98361904Y-91090961D01*
X98344367Y-91008181D01*
X98074500Y-90515104D01*
X97642738Y-90167864D01*
X98021627Y-89914698D01*
X98332696Y-89449151D01*
X98441929Y-88900000D01*
X98332696Y-88350849D01*
X98021627Y-87885302D01*
X97639541Y-87630000D01*
X98021627Y-87374698D01*
X98332696Y-86909151D01*
X98441929Y-86360000D01*
X98332696Y-85810849D01*
X98021627Y-85345302D01*
X97639541Y-85090000D01*
X98021627Y-84834698D01*
X98332696Y-84369151D01*
X98441929Y-83820000D01*
X98332696Y-83270849D01*
X98021627Y-82805302D01*
X97639541Y-82550000D01*
X98021627Y-82294698D01*
X98332696Y-81829151D01*
X98441929Y-81280000D01*
X98332696Y-80730849D01*
X98021627Y-80265302D01*
X97639541Y-80010000D01*
X98021627Y-79754698D01*
X98332696Y-79289151D01*
X98441929Y-78740000D01*
X98332696Y-78190849D01*
X98021627Y-77725302D01*
X97639541Y-77470000D01*
X98021627Y-77214698D01*
X98332696Y-76749151D01*
X98441929Y-76200000D01*
X98332696Y-75650849D01*
X98021627Y-75185302D01*
X97639541Y-74930000D01*
X98021627Y-74674698D01*
X98332696Y-74209151D01*
X98441929Y-73660000D01*
X98332696Y-73110849D01*
X98021627Y-72645302D01*
X97639541Y-72390000D01*
X98021627Y-72134698D01*
X98332696Y-71669151D01*
X98441929Y-71120000D01*
X98332696Y-70570849D01*
X98021627Y-70105302D01*
X97639541Y-69850000D01*
X98021627Y-69594698D01*
X98332696Y-69129151D01*
X98441929Y-68580000D01*
X98332696Y-68030849D01*
X98021627Y-67565302D01*
X97639541Y-67310000D01*
X98021627Y-67054698D01*
X98332696Y-66589151D01*
X98441929Y-66040000D01*
X98332696Y-65490849D01*
X98021627Y-65025302D01*
X97639541Y-64770000D01*
X98021627Y-64514698D01*
X98332696Y-64049151D01*
X98441929Y-63500000D01*
X98332696Y-62950849D01*
X98021627Y-62485302D01*
X97639541Y-62230000D01*
X98021627Y-61974698D01*
X98332696Y-61509151D01*
X98441929Y-60960000D01*
X98332696Y-60410849D01*
X98021627Y-59945302D01*
X97639541Y-59690000D01*
X97841583Y-59555000D01*
X98589868Y-59555000D01*
X99195000Y-60160132D01*
X99195000Y-94779868D01*
X94447434Y-99527434D01*
X94201397Y-99895654D01*
X94115000Y-100330000D01*
X94115000Y-109220000D01*
X94201397Y-109654346D01*
X94447434Y-110022566D01*
X98257434Y-113832566D01*
X98625655Y-114078604D01*
X99060000Y-114165000D01*
X102870000Y-114165000D01*
X103304346Y-114078603D01*
X103672566Y-113832566D01*
X104942566Y-112562566D01*
X105166494Y-112227434D01*
X105188603Y-112194346D01*
X105275000Y-111760000D01*
X105275000Y-110248418D01*
X105410000Y-110046376D01*
X105700657Y-110481375D01*
X106149983Y-110781605D01*
X106680000Y-110887032D01*
X107210017Y-110781605D01*
X107659343Y-110481375D01*
X107743784Y-110355000D01*
X109220000Y-110355000D01*
X109654346Y-110268603D01*
X110022566Y-110022566D01*
X111292566Y-108752566D01*
X111516494Y-108417434D01*
X111538603Y-108384346D01*
X111625000Y-107950000D01*
X111625000Y-100330000D01*
X111538603Y-99895654D01*
X111516494Y-99862566D01*
X111292566Y-99527433D01*
X109085000Y-97319868D01*
X109085000Y-88900000D01*
X109838071Y-88900000D01*
X109947304Y-89449151D01*
X110258373Y-89914698D01*
X110640459Y-90170000D01*
X110258373Y-90425302D01*
X109947304Y-90890849D01*
X109838071Y-91440000D01*
X109947304Y-91989151D01*
X110258373Y-92454698D01*
X110404587Y-92552395D01*
X110274683Y-92576838D01*
X110058559Y-92715910D01*
X109913569Y-92928110D01*
X109862560Y-93180000D01*
X109862560Y-94780000D01*
X109906838Y-95015317D01*
X110045910Y-95231441D01*
X110258110Y-95376431D01*
X110510000Y-95427440D01*
X113010000Y-95427440D01*
X113245317Y-95383162D01*
X113461441Y-95244090D01*
X113606431Y-95031890D01*
X113657440Y-94780000D01*
X113657440Y-93180000D01*
X113613162Y-92944683D01*
X113474090Y-92728559D01*
X113261890Y-92583569D01*
X113113677Y-92553555D01*
X113261627Y-92454698D01*
X113572696Y-91989151D01*
X113681929Y-91440000D01*
X113572696Y-90890849D01*
X113261627Y-90425302D01*
X112879541Y-90170000D01*
X113261627Y-89914698D01*
X113572696Y-89449151D01*
X113681929Y-88900000D01*
X113572696Y-88350849D01*
X113261627Y-87885302D01*
X112882738Y-87632136D01*
X113314500Y-87284896D01*
X113584367Y-86791819D01*
X113601904Y-86709039D01*
X113479915Y-86487000D01*
X111887000Y-86487000D01*
X111887000Y-86507000D01*
X111633000Y-86507000D01*
X111633000Y-86487000D01*
X110040085Y-86487000D01*
X109918096Y-86709039D01*
X109935633Y-86791819D01*
X110205500Y-87284896D01*
X110637262Y-87632136D01*
X110258373Y-87885302D01*
X109947304Y-88350849D01*
X109838071Y-88900000D01*
X109085000Y-88900000D01*
X109085000Y-65240132D01*
X109690132Y-64635000D01*
X110438417Y-64635000D01*
X110640459Y-64770000D01*
X110258373Y-65025302D01*
X109947304Y-65490849D01*
X109838071Y-66040000D01*
X109947304Y-66589151D01*
X110258373Y-67054698D01*
X110640459Y-67310000D01*
X110258373Y-67565302D01*
X109947304Y-68030849D01*
X109838071Y-68580000D01*
X109947304Y-69129151D01*
X110258373Y-69594698D01*
X110640459Y-69850000D01*
X110258373Y-70105302D01*
X109947304Y-70570849D01*
X109838071Y-71120000D01*
X109947304Y-71669151D01*
X110258373Y-72134698D01*
X110640459Y-72390000D01*
X110258373Y-72645302D01*
X109947304Y-73110849D01*
X109838071Y-73660000D01*
X109947304Y-74209151D01*
X110258373Y-74674698D01*
X110640459Y-74930000D01*
X110258373Y-75185302D01*
X109947304Y-75650849D01*
X109838071Y-76200000D01*
X109947304Y-76749151D01*
X110258373Y-77214698D01*
X110640459Y-77470000D01*
X110258373Y-77725302D01*
X109947304Y-78190849D01*
X109838071Y-78740000D01*
X109947304Y-79289151D01*
X110258373Y-79754698D01*
X110640459Y-80010000D01*
X110258373Y-80265302D01*
X109947304Y-80730849D01*
X109838071Y-81280000D01*
X109947304Y-81829151D01*
X110258373Y-82294698D01*
X110640459Y-82550000D01*
X110258373Y-82805302D01*
X109947304Y-83270849D01*
X109838071Y-83820000D01*
X109947304Y-84369151D01*
X110258373Y-84834698D01*
X110637262Y-85087864D01*
X110205500Y-85435104D01*
X109935633Y-85928181D01*
X109918096Y-86010961D01*
X110040085Y-86233000D01*
X111633000Y-86233000D01*
X111633000Y-86213000D01*
X111887000Y-86213000D01*
X111887000Y-86233000D01*
X113479915Y-86233000D01*
X113601904Y-86010961D01*
X113584367Y-85928181D01*
X113314500Y-85435104D01*
X112882738Y-85087864D01*
X113261627Y-84834698D01*
X113572696Y-84369151D01*
X113681929Y-83820000D01*
X113572696Y-83270849D01*
X113261627Y-82805302D01*
X112879541Y-82550000D01*
X113261627Y-82294698D01*
X113572696Y-81829151D01*
X113681929Y-81280000D01*
X113572696Y-80730849D01*
X113261627Y-80265302D01*
X112879541Y-80010000D01*
X113261627Y-79754698D01*
X113572696Y-79289151D01*
X113681929Y-78740000D01*
X113572696Y-78190849D01*
X113261627Y-77725302D01*
X112879541Y-77470000D01*
X113261627Y-77214698D01*
X113572696Y-76749151D01*
X113681929Y-76200000D01*
X113572696Y-75650849D01*
X113261627Y-75185302D01*
X112879541Y-74930000D01*
X113261627Y-74674698D01*
X113572696Y-74209151D01*
X113681929Y-73660000D01*
X113611674Y-73306806D01*
X119515000Y-79210132D01*
X119515000Y-91440000D01*
X119601397Y-91874346D01*
X119847434Y-92242566D01*
X121117434Y-93512566D01*
X121485654Y-93758603D01*
X121920000Y-93845000D01*
X124485025Y-93845000D01*
X124648110Y-93956431D01*
X124900000Y-94007440D01*
X126400000Y-94007440D01*
X126635317Y-93963162D01*
X126851441Y-93824090D01*
X126996431Y-93611890D01*
X126999081Y-93598803D01*
X127135910Y-93811441D01*
X127348110Y-93956431D01*
X127600000Y-94007440D01*
X129100000Y-94007440D01*
X129335317Y-93963162D01*
X129518946Y-93845000D01*
X132172796Y-93845000D01*
X132422637Y-94095278D01*
X133023352Y-94344716D01*
X133673795Y-94345284D01*
X134274943Y-94096894D01*
X134337196Y-94034749D01*
X134351673Y-94069699D01*
X134530302Y-94248327D01*
X134763691Y-94345000D01*
X135604250Y-94345000D01*
X135763000Y-94186250D01*
X135763000Y-92837000D01*
X136017000Y-92837000D01*
X136017000Y-94186250D01*
X136175750Y-94345000D01*
X137016309Y-94345000D01*
X137249698Y-94248327D01*
X137428327Y-94069699D01*
X137525000Y-93836310D01*
X137525000Y-92995750D01*
X137366250Y-92837000D01*
X136017000Y-92837000D01*
X135763000Y-92837000D01*
X135743000Y-92837000D01*
X135743000Y-92583000D01*
X135763000Y-92583000D01*
X135763000Y-91233750D01*
X136017000Y-91233750D01*
X136017000Y-92583000D01*
X137366250Y-92583000D01*
X137525000Y-92424250D01*
X137525000Y-91583690D01*
X137428327Y-91350301D01*
X137249698Y-91171673D01*
X137016309Y-91075000D01*
X136175750Y-91075000D01*
X136017000Y-91233750D01*
X135763000Y-91233750D01*
X135604250Y-91075000D01*
X134763691Y-91075000D01*
X134530302Y-91171673D01*
X134351673Y-91350301D01*
X134337369Y-91384833D01*
X134277363Y-91324722D01*
X133676648Y-91075284D01*
X133026205Y-91074716D01*
X132425057Y-91323106D01*
X132172722Y-91575000D01*
X129514975Y-91575000D01*
X129351890Y-91463569D01*
X129100000Y-91412560D01*
X127600000Y-91412560D01*
X127364683Y-91456838D01*
X127148559Y-91595910D01*
X127003569Y-91808110D01*
X127000919Y-91821197D01*
X126864090Y-91608559D01*
X126651890Y-91463569D01*
X126400000Y-91412560D01*
X124900000Y-91412560D01*
X124664683Y-91456838D01*
X124481054Y-91575000D01*
X122390132Y-91575000D01*
X121785000Y-90969868D01*
X121785000Y-78740000D01*
X121698603Y-78305654D01*
X121452566Y-77937434D01*
X113832566Y-70317434D01*
X113515088Y-70105302D01*
X113464346Y-70071397D01*
X113103447Y-69999610D01*
X112879541Y-69850000D01*
X113081583Y-69715000D01*
X113829868Y-69715000D01*
X122055000Y-77940133D01*
X122055000Y-82550000D01*
X122141397Y-82984346D01*
X122387434Y-83352566D01*
X123657434Y-84622566D01*
X124025654Y-84868603D01*
X124460000Y-84955000D01*
X124485025Y-84955000D01*
X124648110Y-85066431D01*
X124900000Y-85117440D01*
X126400000Y-85117440D01*
X126635317Y-85073162D01*
X126851441Y-84934090D01*
X126996431Y-84721890D01*
X126999081Y-84708803D01*
X127135910Y-84921441D01*
X127348110Y-85066431D01*
X127600000Y-85117440D01*
X129100000Y-85117440D01*
X129335317Y-85073162D01*
X129518946Y-84955000D01*
X132172796Y-84955000D01*
X132422637Y-85205278D01*
X133023352Y-85454716D01*
X133673795Y-85455284D01*
X134274943Y-85206894D01*
X134337196Y-85144749D01*
X134351673Y-85179699D01*
X134530302Y-85358327D01*
X134763691Y-85455000D01*
X135604250Y-85455000D01*
X135763000Y-85296250D01*
X135763000Y-83947000D01*
X136017000Y-83947000D01*
X136017000Y-85296250D01*
X136175750Y-85455000D01*
X137016309Y-85455000D01*
X137249698Y-85358327D01*
X137428327Y-85179699D01*
X137525000Y-84946310D01*
X137525000Y-84105750D01*
X137366250Y-83947000D01*
X136017000Y-83947000D01*
X135763000Y-83947000D01*
X135743000Y-83947000D01*
X135743000Y-83693000D01*
X135763000Y-83693000D01*
X135763000Y-82343750D01*
X136017000Y-82343750D01*
X136017000Y-83693000D01*
X137366250Y-83693000D01*
X137525000Y-83534250D01*
X137525000Y-82693690D01*
X137428327Y-82460301D01*
X137249698Y-82281673D01*
X137016309Y-82185000D01*
X136175750Y-82185000D01*
X136017000Y-82343750D01*
X135763000Y-82343750D01*
X135604250Y-82185000D01*
X134763691Y-82185000D01*
X134530302Y-82281673D01*
X134351673Y-82460301D01*
X134337369Y-82494833D01*
X134277363Y-82434722D01*
X133676648Y-82185284D01*
X133026205Y-82184716D01*
X132425057Y-82433106D01*
X132172722Y-82685000D01*
X129514975Y-82685000D01*
X129351890Y-82573569D01*
X129100000Y-82522560D01*
X127600000Y-82522560D01*
X127364683Y-82566838D01*
X127148559Y-82705910D01*
X127003569Y-82918110D01*
X127000919Y-82931197D01*
X126864090Y-82718559D01*
X126651890Y-82573569D01*
X126400000Y-82522560D01*
X124900000Y-82522560D01*
X124788645Y-82543513D01*
X124325000Y-82079868D01*
X124325000Y-77470000D01*
X124301748Y-77353106D01*
X124238604Y-77035655D01*
X123992567Y-76667434D01*
X115102566Y-67777434D01*
X114785088Y-67565302D01*
X114734346Y-67531397D01*
X114300000Y-67445000D01*
X113081583Y-67445000D01*
X112879541Y-67310000D01*
X113081583Y-67175000D01*
X115099868Y-67175000D01*
X123657434Y-75732567D01*
X124025655Y-75978604D01*
X124460000Y-76065000D01*
X124485025Y-76065000D01*
X124648110Y-76176431D01*
X124900000Y-76227440D01*
X126400000Y-76227440D01*
X126635317Y-76183162D01*
X126851441Y-76044090D01*
X126996431Y-75831890D01*
X126999081Y-75818803D01*
X127135910Y-76031441D01*
X127348110Y-76176431D01*
X127600000Y-76227440D01*
X129100000Y-76227440D01*
X129335317Y-76183162D01*
X129518946Y-76065000D01*
X132172796Y-76065000D01*
X132422637Y-76315278D01*
X133023352Y-76564716D01*
X133673795Y-76565284D01*
X134274943Y-76316894D01*
X134337196Y-76254749D01*
X134351673Y-76289699D01*
X134530302Y-76468327D01*
X134763691Y-76565000D01*
X135604250Y-76565000D01*
X135763000Y-76406250D01*
X135763000Y-75057000D01*
X136017000Y-75057000D01*
X136017000Y-76406250D01*
X136175750Y-76565000D01*
X137016309Y-76565000D01*
X137249698Y-76468327D01*
X137428327Y-76289699D01*
X137525000Y-76056310D01*
X137525000Y-75215750D01*
X137366250Y-75057000D01*
X136017000Y-75057000D01*
X135763000Y-75057000D01*
X135743000Y-75057000D01*
X135743000Y-74803000D01*
X135763000Y-74803000D01*
X135763000Y-73453750D01*
X136017000Y-73453750D01*
X136017000Y-74803000D01*
X137366250Y-74803000D01*
X137525000Y-74644250D01*
X137525000Y-73803690D01*
X137428327Y-73570301D01*
X137249698Y-73391673D01*
X137016309Y-73295000D01*
X136175750Y-73295000D01*
X136017000Y-73453750D01*
X135763000Y-73453750D01*
X135604250Y-73295000D01*
X134763691Y-73295000D01*
X134530302Y-73391673D01*
X134351673Y-73570301D01*
X134337369Y-73604833D01*
X134277363Y-73544722D01*
X133676648Y-73295284D01*
X133026205Y-73294716D01*
X132425057Y-73543106D01*
X132172722Y-73795000D01*
X129514975Y-73795000D01*
X129351890Y-73683569D01*
X129100000Y-73632560D01*
X127600000Y-73632560D01*
X127364683Y-73676838D01*
X127148559Y-73815910D01*
X127003569Y-74028110D01*
X127000919Y-74041197D01*
X126864090Y-73828559D01*
X126651890Y-73683569D01*
X126400000Y-73632560D01*
X124900000Y-73632560D01*
X124788646Y-73653513D01*
X116372566Y-65237434D01*
X116055088Y-65025302D01*
X116004346Y-64991397D01*
X115570000Y-64905000D01*
X113081583Y-64905000D01*
X112879541Y-64770000D01*
X113261627Y-64514698D01*
X113572696Y-64049151D01*
X113681929Y-63500000D01*
X113572696Y-62950849D01*
X113261627Y-62485302D01*
X112879541Y-62230000D01*
X113261627Y-61974698D01*
X113472956Y-61658422D01*
X133521183Y-61658422D01*
X133705371Y-61997970D01*
X134568509Y-62341316D01*
X135497336Y-62328218D01*
X136294629Y-61997970D01*
X136478817Y-61658422D01*
X135000000Y-60179605D01*
X133521183Y-61658422D01*
X113472956Y-61658422D01*
X113572696Y-61509151D01*
X113681929Y-60960000D01*
X113572696Y-60410849D01*
X113261627Y-59945302D01*
X112879541Y-59690000D01*
X113061364Y-59568509D01*
X132658684Y-59568509D01*
X132671782Y-60497336D01*
X133002030Y-61294629D01*
X133341578Y-61478817D01*
X134820395Y-60000000D01*
X135179605Y-60000000D01*
X136658422Y-61478817D01*
X136997970Y-61294629D01*
X137341316Y-60431491D01*
X137328218Y-59502664D01*
X136997970Y-58705371D01*
X136658422Y-58521183D01*
X135179605Y-60000000D01*
X134820395Y-60000000D01*
X133341578Y-58521183D01*
X133002030Y-58705371D01*
X132658684Y-59568509D01*
X113061364Y-59568509D01*
X113261627Y-59434698D01*
X113572696Y-58969151D01*
X113681929Y-58420000D01*
X113666330Y-58341578D01*
X133521183Y-58341578D01*
X135000000Y-59820395D01*
X136478817Y-58341578D01*
X136294629Y-58002030D01*
X135431491Y-57658684D01*
X134502664Y-57671782D01*
X133705371Y-58002030D01*
X133521183Y-58341578D01*
X113666330Y-58341578D01*
X113572696Y-57870849D01*
X113261627Y-57405302D01*
X112796080Y-57094233D01*
X112246929Y-56985000D01*
X111273071Y-56985000D01*
X110723920Y-57094233D01*
X110438417Y-57285000D01*
X104140000Y-57285000D01*
X103705654Y-57371397D01*
X103337434Y-57617434D01*
X102067434Y-58887434D01*
X101821397Y-59255654D01*
X101735000Y-59690000D01*
X101735000Y-96049868D01*
X96987434Y-100797434D01*
X96741397Y-101165654D01*
X96655000Y-101600000D01*
X96655000Y-107950000D01*
X96741397Y-108384346D01*
X96763506Y-108417434D01*
X96987434Y-108752566D01*
X98257434Y-110022566D01*
X98625654Y-110268603D01*
X99060000Y-110355000D01*
X100227962Y-110355000D01*
X100246838Y-110455317D01*
X100385910Y-110671441D01*
X100598110Y-110816431D01*
X100850000Y-110867440D01*
X102350000Y-110867440D01*
X102585317Y-110823162D01*
X102801441Y-110684090D01*
X102946431Y-110471890D01*
X102994782Y-110233126D01*
X103005000Y-110248418D01*
X103005000Y-111289868D01*
X102399868Y-111895000D01*
X99530132Y-111895000D01*
X96385000Y-108749868D01*
X96385000Y-100800132D01*
X101132566Y-96052566D01*
X101356494Y-95717434D01*
X101378603Y-95684346D01*
X101465000Y-95250000D01*
X101465000Y-59690000D01*
X101378603Y-59255654D01*
X101132566Y-58887434D01*
X99862566Y-57617434D01*
X99494346Y-57371397D01*
X99060000Y-57285000D01*
X97841583Y-57285000D01*
X97556080Y-57094233D01*
X97006929Y-56985000D01*
X96033071Y-56985000D01*
X95483920Y-57094233D01*
X95018373Y-57405302D01*
X94707304Y-57870849D01*
X94598071Y-58420000D01*
X94707304Y-58969151D01*
X95018373Y-59434698D01*
X95400459Y-59690000D01*
X95018373Y-59945302D01*
X94707304Y-60410849D01*
X94598071Y-60960000D01*
X94707304Y-61509151D01*
X95018373Y-61974698D01*
X95400459Y-62230000D01*
X95018373Y-62485302D01*
X94707304Y-62950849D01*
X94598071Y-63500000D01*
X94707304Y-64049151D01*
X95018373Y-64514698D01*
X95400459Y-64770000D01*
X95018373Y-65025302D01*
X94707304Y-65490849D01*
X94598071Y-66040000D01*
X94707304Y-66589151D01*
X95018373Y-67054698D01*
X95400459Y-67310000D01*
X95018373Y-67565302D01*
X94707304Y-68030849D01*
X94598071Y-68580000D01*
X94707304Y-69129151D01*
X95018373Y-69594698D01*
X95400459Y-69850000D01*
X95018373Y-70105302D01*
X94707304Y-70570849D01*
X94598071Y-71120000D01*
X94707304Y-71669151D01*
X95018373Y-72134698D01*
X95400459Y-72390000D01*
X95018373Y-72645302D01*
X94707304Y-73110849D01*
X94598071Y-73660000D01*
X94707304Y-74209151D01*
X95018373Y-74674698D01*
X95400459Y-74930000D01*
X95018373Y-75185302D01*
X94707304Y-75650849D01*
X94598071Y-76200000D01*
X94707304Y-76749151D01*
X95018373Y-77214698D01*
X95400459Y-77470000D01*
X95018373Y-77725302D01*
X94707304Y-78190849D01*
X94598071Y-78740000D01*
X94707304Y-79289151D01*
X95018373Y-79754698D01*
X95400459Y-80010000D01*
X95018373Y-80265302D01*
X94707304Y-80730849D01*
X94598071Y-81280000D01*
X94707304Y-81829151D01*
X95018373Y-82294698D01*
X95400459Y-82550000D01*
X95018373Y-82805302D01*
X94707304Y-83270849D01*
X94598071Y-83820000D01*
X94707304Y-84369151D01*
X95018373Y-84834698D01*
X95400459Y-85090000D01*
X95018373Y-85345302D01*
X94707304Y-85810849D01*
X94598071Y-86360000D01*
X94707304Y-86909151D01*
X95018373Y-87374698D01*
X95400459Y-87630000D01*
X95198417Y-87765000D01*
X94450132Y-87765000D01*
X93845000Y-87159868D01*
X93845000Y-85090000D01*
X93758603Y-84655654D01*
X93567168Y-84369151D01*
X93512566Y-84287433D01*
X91804975Y-82579843D01*
X91805284Y-82226205D01*
X91556894Y-81625057D01*
X91097363Y-81164722D01*
X90496648Y-80915284D01*
X89846205Y-80914716D01*
X89245057Y-81163106D01*
X88784722Y-81622637D01*
X88535284Y-82223352D01*
X88534716Y-82873795D01*
X81644718Y-82873795D01*
X81645027Y-82520105D01*
X83352566Y-80812567D01*
X83598603Y-80444346D01*
X83634217Y-80265302D01*
X83685000Y-80010000D01*
X83685000Y-63011568D01*
X83698043Y-62998548D01*
X83904764Y-62500709D01*
X83905235Y-61961656D01*
X83699383Y-61463457D01*
X83318548Y-61081957D01*
X83040884Y-60966661D01*
X83255869Y-60877611D01*
X83320169Y-60639774D01*
X82550000Y-59869605D01*
X81779831Y-60639774D01*
X81844131Y-60877611D01*
X82076172Y-60959669D01*
X81783457Y-61080617D01*
X81401957Y-61461452D01*
X81195236Y-61959291D01*
X81194765Y-62498344D01*
X81400617Y-62996543D01*
X81415000Y-63010951D01*
X81415000Y-79539867D01*
X80039843Y-80915025D01*
X79686205Y-80914716D01*
X79085057Y-81163106D01*
X78624722Y-81622637D01*
X78375284Y-82223352D01*
X78374716Y-82873795D01*
X65710000Y-82873795D01*
X65710000Y-81090159D01*
X68949446Y-81090159D01*
X69035852Y-81346643D01*
X69609336Y-81556458D01*
X70219460Y-81530839D01*
X70664148Y-81346643D01*
X70750554Y-81090159D01*
X69850000Y-80189605D01*
X68949446Y-81090159D01*
X65710000Y-81090159D01*
X65710000Y-76570000D01*
X68302560Y-76570000D01*
X68302560Y-78370000D01*
X68346838Y-78605317D01*
X68485910Y-78821441D01*
X68689574Y-78960598D01*
X68655282Y-78994890D01*
X68769839Y-79109447D01*
X68513357Y-79195852D01*
X68303542Y-79769336D01*
X68329161Y-80379460D01*
X68513357Y-80824148D01*
X68769841Y-80910554D01*
X69670395Y-80010000D01*
X69656253Y-79995858D01*
X69835858Y-79816253D01*
X69850000Y-79830395D01*
X69864143Y-79816253D01*
X70043748Y-79995858D01*
X70029605Y-80010000D01*
X70930159Y-80910554D01*
X71186643Y-80824148D01*
X71396458Y-80250664D01*
X71370839Y-79640540D01*
X71186643Y-79195852D01*
X70930161Y-79109447D01*
X71044718Y-78994890D01*
X71008240Y-78958412D01*
X71201441Y-78834090D01*
X71346431Y-78621890D01*
X71349851Y-78605000D01*
X73189868Y-78605000D01*
X73295025Y-78710157D01*
X73294716Y-79063795D01*
X73543106Y-79664943D01*
X74002637Y-80125278D01*
X74603352Y-80374716D01*
X75253795Y-80375284D01*
X75854943Y-80126894D01*
X76315278Y-79667363D01*
X76564716Y-79066648D01*
X76565284Y-78416205D01*
X76316894Y-77815057D01*
X75857363Y-77354722D01*
X75256648Y-77105284D01*
X74900105Y-77104973D01*
X74462566Y-76667434D01*
X74094346Y-76421397D01*
X73660000Y-76335000D01*
X71353222Y-76335000D01*
X71353162Y-76334683D01*
X71214090Y-76118559D01*
X71001890Y-75973569D01*
X70750000Y-75922560D01*
X68950000Y-75922560D01*
X68714683Y-75966838D01*
X68498559Y-76105910D01*
X68353569Y-76318110D01*
X68302560Y-76570000D01*
X65710000Y-76570000D01*
X65710000Y-61658422D01*
X68521183Y-61658422D01*
X68705371Y-61997970D01*
X69568509Y-62341316D01*
X70497336Y-62328218D01*
X71294629Y-61997970D01*
X71478817Y-61658422D01*
X70000000Y-60179605D01*
X68521183Y-61658422D01*
X65710000Y-61658422D01*
X65710000Y-59568509D01*
X67658684Y-59568509D01*
X67671782Y-60497336D01*
X68002030Y-61294629D01*
X68341578Y-61478817D01*
X69820395Y-60000000D01*
X70179605Y-60000000D01*
X71658422Y-61478817D01*
X71997970Y-61294629D01*
X72341316Y-60431491D01*
X72328218Y-59502664D01*
X72323943Y-59492342D01*
X81182667Y-59492342D01*
X81211108Y-60030644D01*
X81362389Y-60395869D01*
X81600226Y-60460169D01*
X82370395Y-59690000D01*
X82729605Y-59690000D01*
X83499774Y-60460169D01*
X83737611Y-60395869D01*
X83917333Y-59887658D01*
X83888892Y-59349356D01*
X83737611Y-58984131D01*
X83499774Y-58919831D01*
X82729605Y-59690000D01*
X82370395Y-59690000D01*
X81600226Y-58919831D01*
X81362389Y-58984131D01*
X81182667Y-59492342D01*
X72323943Y-59492342D01*
X71997970Y-58705371D01*
X71658422Y-58521183D01*
X70179605Y-60000000D01*
X69820395Y-60000000D01*
X68341578Y-58521183D01*
X68002030Y-58705371D01*
X67658684Y-59568509D01*
X65710000Y-59568509D01*
X65710000Y-58341578D01*
X68521183Y-58341578D01*
X70000000Y-59820395D01*
X71478817Y-58341578D01*
X71347651Y-58099774D01*
X81779831Y-58099774D01*
X81844131Y-58337611D01*
X82058728Y-58413500D01*
X81844131Y-58502389D01*
X81779831Y-58740226D01*
X82550000Y-59510395D01*
X83320169Y-58740226D01*
X83255869Y-58502389D01*
X83041272Y-58426500D01*
X83255869Y-58337611D01*
X83320169Y-58099774D01*
X82550000Y-57329605D01*
X81779831Y-58099774D01*
X71347651Y-58099774D01*
X71294629Y-58002030D01*
X70431491Y-57658684D01*
X69502664Y-57671782D01*
X68705371Y-58002030D01*
X68521183Y-58341578D01*
X65710000Y-58341578D01*
X65710000Y-56952342D01*
X81182667Y-56952342D01*
X81211108Y-57490644D01*
X81362389Y-57855869D01*
X81600226Y-57920169D01*
X82370395Y-57150000D01*
X82729605Y-57150000D01*
X83499774Y-57920169D01*
X83737611Y-57855869D01*
X83917333Y-57347658D01*
X83888892Y-56809356D01*
X83737611Y-56444131D01*
X83499774Y-56379831D01*
X82729605Y-57150000D01*
X82370395Y-57150000D01*
X81600226Y-56379831D01*
X81362389Y-56444131D01*
X81182667Y-56952342D01*
X65710000Y-56952342D01*
X65710000Y-56200226D01*
X81779831Y-56200226D01*
X82550000Y-56970395D01*
X83320169Y-56200226D01*
X83255869Y-55962389D01*
X82747658Y-55782667D01*
X82209356Y-55811108D01*
X81844131Y-55962389D01*
X81779831Y-56200226D01*
X65710000Y-56200226D01*
X65710000Y-55710000D01*
X139290000Y-55710000D01*
X139290000Y-129290000D01*
G36*
X110640459Y-62230000D02*
X110438417Y-62365000D01*
X109220000Y-62365000D01*
X108785654Y-62451397D01*
X108466955Y-62664345D01*
X108417434Y-62697434D01*
X107147434Y-63967434D01*
X106901397Y-64335654D01*
X106815000Y-64770000D01*
X106815000Y-97790000D01*
X106901397Y-98224346D01*
X106923506Y-98257434D01*
X107147434Y-98592566D01*
X109355000Y-100800133D01*
X109355000Y-107479868D01*
X108749868Y-108085000D01*
X107743784Y-108085000D01*
X107659343Y-107958625D01*
X107630446Y-107939317D01*
X107929964Y-107551721D01*
X108072739Y-107026055D01*
X107911868Y-106807000D01*
X106807000Y-106807000D01*
X106807000Y-106827000D01*
X106553000Y-106827000D01*
X106553000Y-106807000D01*
X106533000Y-106807000D01*
X106533000Y-106553000D01*
X106553000Y-106553000D01*
X106553000Y-105210344D01*
X106807000Y-105210344D01*
X106807000Y-106553000D01*
X107911868Y-106553000D01*
X108072739Y-106333945D01*
X107929964Y-105808279D01*
X107596894Y-105377264D01*
X107124235Y-105106519D01*
X107021185Y-105087682D01*
X106807000Y-105210344D01*
X106553000Y-105210344D01*
X106338815Y-105087682D01*
X106235765Y-105106519D01*
X105763106Y-105377264D01*
X105430036Y-105808279D01*
X105415489Y-105861839D01*
X105275000Y-105651582D01*
X105275000Y-99530132D01*
X106212566Y-98592566D01*
X106436494Y-98257434D01*
X106458603Y-98224346D01*
X106545000Y-97790000D01*
X106545000Y-62700132D01*
X107150132Y-62095000D01*
X110438417Y-62095000D01*
X110640459Y-62230000D01*
X110640459Y-62230000D01*
G37*
X110640459Y-62230000D02*
X110438417Y-62365000D01*
X109220000Y-62365000D01*
X108785654Y-62451397D01*
X108466955Y-62664345D01*
X108417434Y-62697434D01*
X107147434Y-63967434D01*
X106901397Y-64335654D01*
X106815000Y-64770000D01*
X106815000Y-97790000D01*
X106901397Y-98224346D01*
X106923506Y-98257434D01*
X107147434Y-98592566D01*
X109355000Y-100800133D01*
X109355000Y-107479868D01*
X108749868Y-108085000D01*
X107743784Y-108085000D01*
X107659343Y-107958625D01*
X107630446Y-107939317D01*
X107929964Y-107551721D01*
X108072739Y-107026055D01*
X107911868Y-106807000D01*
X106807000Y-106807000D01*
X106807000Y-106827000D01*
X106553000Y-106827000D01*
X106553000Y-106807000D01*
X106533000Y-106807000D01*
X106533000Y-106553000D01*
X106553000Y-106553000D01*
X106553000Y-105210344D01*
X106807000Y-105210344D01*
X106807000Y-106553000D01*
X107911868Y-106553000D01*
X108072739Y-106333945D01*
X107929964Y-105808279D01*
X107596894Y-105377264D01*
X107124235Y-105106519D01*
X107021185Y-105087682D01*
X106807000Y-105210344D01*
X106553000Y-105210344D01*
X106338815Y-105087682D01*
X106235765Y-105106519D01*
X105763106Y-105377264D01*
X105430036Y-105808279D01*
X105415489Y-105861839D01*
X105275000Y-105651582D01*
X105275000Y-99530132D01*
X106212566Y-98592566D01*
X106436494Y-98257434D01*
X106458603Y-98224346D01*
X106545000Y-97790000D01*
X106545000Y-62700132D01*
X107150132Y-62095000D01*
X110438417Y-62095000D01*
X110640459Y-62230000D01*
M02*
