M48
;DRILL file {KiCad 4.0.7} date 04/22/18 15:44:37
;FORMAT={-:-/ absolute / inch / decimal}
FMAT,2
INCH,TZ
T1C0.031
T2C0.039
%
G90
G05
M72
T1
X2.75Y-3.05
X2.75Y-3.15
X2.95Y-3.1
X3.15Y-3.25
X3.25Y-2.25
X3.25Y-2.35
X3.25Y-2.45
X3.55Y-2.65
X3.55Y-3.25
X3.65Y-4.55
X4.Y-4.05
X4.2Y-4.05
X4.45Y-4.05
T2
X2.7559Y-2.3622
X2.7559Y-4.9213
X3.8Y-2.3
X3.8Y-2.4
X3.8Y-2.5
X3.8Y-2.6
X3.8Y-2.7
X3.8Y-2.8
X3.8Y-2.9
X3.8Y-3.
X3.8Y-3.1
X3.8Y-3.2
X3.8Y-3.3
X3.8Y-3.4
X3.8Y-3.5
X3.8Y-3.6
X3.8Y-3.7
X4.Y-4.2
X4.Y-4.3
X4.1Y-4.2
X4.1Y-4.3
X4.2Y-4.2
X4.2Y-4.3
X4.4Y-2.3
X4.4Y-2.4
X4.4Y-2.5
X4.4Y-2.6
X4.4Y-2.7
X4.4Y-2.8
X4.4Y-2.9
X4.4Y-3.
X4.4Y-3.1
X4.4Y-3.2
X4.4Y-3.3
X4.4Y-3.4
X4.4Y-3.5
X4.4Y-3.6
X4.4Y-3.7
X5.25Y-2.95
X5.25Y-3.3
X5.25Y-3.65
X5.315Y-2.3622
X5.315Y-4.9213
X5.35Y-2.95
X5.35Y-3.3
X5.35Y-3.65
T0
M30
