G04 #@! TF.FileFunction,Copper,L1,Top,Signal*
%FSLAX46Y46*%
G04 Gerber Fmt 4.6, Leading zero omitted, Abs format (unit mm)*
G04 Created by KiCad (PCBNEW 4.0.7) date 04/22/18 15:44:27*
%MOMM*%
%LPD*%
G01*
G04 APERTURE LIST*
%ADD10C,0.100000*%
%ADD11R,1.600000X3.500000*%
%ADD12R,1.600000X3.000000*%
%ADD13R,1.500000X1.250000*%
%ADD14R,2.200000X2.500000*%
%ADD15R,2.500000X2.200000*%
%ADD16R,2.000000X2.000000*%
%ADD17C,2.000000*%
%ADD18C,3.400000*%
%ADD19R,1.800000X1.800000*%
%ADD20C,1.800000*%
%ADD21R,1.500000X2.000000*%
%ADD22O,1.500000X2.000000*%
%ADD23R,1.500000X1.300000*%
%ADD24C,1.440000*%
%ADD25R,2.150000X1.300000*%
%ADD26R,5.700000X5.500000*%
%ADD27R,2.500000X1.600000*%
%ADD28O,2.500000X1.600000*%
%ADD29C,1.000000*%
%ADD30C,0.254000*%
G04 APERTURE END LIST*
D10*
D11*
X73660000Y-105250000D03*
X73660000Y-110650000D03*
D12*
X90170000Y-77130000D03*
X90170000Y-72730000D03*
D13*
X80030000Y-110490000D03*
X82530000Y-110490000D03*
X88880000Y-110490000D03*
X86380000Y-110490000D03*
D14*
X74930000Y-92520000D03*
X74930000Y-87820000D03*
D15*
X86170000Y-93980000D03*
X81470000Y-93980000D03*
X97600000Y-102870000D03*
X92900000Y-102870000D03*
D16*
X135890000Y-92710000D03*
D17*
X133350000Y-92710000D03*
D16*
X135890000Y-83820000D03*
D17*
X133350000Y-83820000D03*
D16*
X135890000Y-74930000D03*
D17*
X133350000Y-74930000D03*
D18*
X70000000Y-125000000D03*
X135000000Y-125000000D03*
X70000000Y-60000000D03*
X135000000Y-60000000D03*
D19*
X69850000Y-77470000D03*
D20*
X69850000Y-80010000D03*
D21*
X101600000Y-109220000D03*
D22*
X101600000Y-106680000D03*
X104140000Y-109220000D03*
X104140000Y-106680000D03*
X106680000Y-109220000D03*
X106680000Y-106680000D03*
D23*
X86280000Y-87630000D03*
X88980000Y-87630000D03*
X79930000Y-87630000D03*
X82630000Y-87630000D03*
D24*
X82550000Y-62230000D03*
X82550000Y-59690000D03*
X82550000Y-57150000D03*
D25*
X80710000Y-100585000D03*
D26*
X87375000Y-102870000D03*
D25*
X80710000Y-105155000D03*
D27*
X111760000Y-93980000D03*
D28*
X111760000Y-91440000D03*
X111760000Y-88900000D03*
X111760000Y-86360000D03*
X111760000Y-83820000D03*
X111760000Y-81280000D03*
X111760000Y-78740000D03*
X111760000Y-76200000D03*
X111760000Y-73660000D03*
X111760000Y-71120000D03*
X111760000Y-68580000D03*
X111760000Y-66040000D03*
X111760000Y-63500000D03*
X111760000Y-60960000D03*
X111760000Y-58420000D03*
X96520000Y-58420000D03*
X96520000Y-60960000D03*
X96520000Y-63500000D03*
X96520000Y-66040000D03*
X96520000Y-68580000D03*
X96520000Y-71120000D03*
X96520000Y-73660000D03*
X96520000Y-76200000D03*
X96520000Y-78740000D03*
X96520000Y-81280000D03*
X96520000Y-83820000D03*
X96520000Y-86360000D03*
X96520000Y-88900000D03*
X96520000Y-91440000D03*
X96520000Y-93980000D03*
D17*
X90170000Y-67310000D03*
X92710000Y-115570000D03*
X113030000Y-102870000D03*
X106680000Y-102870000D03*
X90170000Y-82550000D03*
X74930000Y-78740000D03*
X101600000Y-102870000D03*
X80010000Y-82550000D03*
D29*
X80710000Y-105155000D02*
X80710000Y-107250000D01*
X80030000Y-107930000D02*
X80030000Y-110490000D01*
X80710000Y-107250000D02*
X80030000Y-107930000D01*
X73660000Y-105250000D02*
X80615000Y-105250000D01*
X80615000Y-105250000D02*
X80710000Y-105155000D01*
X74930000Y-92520000D02*
X74930000Y-97790000D01*
X73660000Y-99060000D02*
X73660000Y-105250000D01*
X74930000Y-97790000D02*
X73660000Y-99060000D01*
X73660000Y-110650000D02*
X73660000Y-114300000D01*
X76200000Y-115570000D02*
X85090000Y-115570000D01*
X74930000Y-115570000D02*
X76200000Y-115570000D01*
X73660000Y-114300000D02*
X74930000Y-115570000D01*
X85090000Y-110490000D02*
X85090000Y-115570000D01*
X90170000Y-72730000D02*
X90170000Y-67310000D01*
X85090000Y-115570000D02*
X92710000Y-115570000D01*
X82530000Y-110490000D02*
X85090000Y-110490000D01*
X85090000Y-110490000D02*
X86380000Y-110490000D01*
X106680000Y-102870000D02*
X113030000Y-102870000D01*
X90170000Y-82550000D02*
X90170000Y-77130000D01*
X87375000Y-102870000D02*
X92900000Y-102870000D01*
X86170000Y-93980000D02*
X88980000Y-93980000D01*
X88980000Y-93980000D02*
X88900000Y-93980000D01*
X88900000Y-93980000D02*
X88980000Y-93980000D01*
X88980000Y-87630000D02*
X88980000Y-93980000D01*
X88980000Y-93980000D02*
X88980000Y-97710000D01*
X87375000Y-99315000D02*
X87375000Y-102870000D01*
X88980000Y-97710000D02*
X87375000Y-99315000D01*
X87375000Y-102870000D02*
X87375000Y-106425000D01*
X88880000Y-107930000D02*
X88880000Y-110490000D01*
X87375000Y-106425000D02*
X88880000Y-107930000D01*
X74930000Y-78740000D02*
X74930000Y-87820000D01*
X80710000Y-100585000D02*
X80710000Y-98360000D01*
X81470000Y-97600000D02*
X81470000Y-93980000D01*
X80710000Y-98360000D02*
X81470000Y-97600000D01*
X82630000Y-87630000D02*
X86280000Y-87630000D01*
X81470000Y-93980000D02*
X81470000Y-91250000D01*
X82630000Y-90090000D02*
X82630000Y-87630000D01*
X81470000Y-91250000D02*
X82630000Y-90090000D01*
X97600000Y-102870000D02*
X101600000Y-102870000D01*
X79930000Y-82630000D02*
X79930000Y-87630000D01*
X80010000Y-82550000D02*
X79930000Y-82630000D01*
D30*
G36*
X139290000Y-129290000D02*
X65710000Y-129290000D01*
X65710000Y-126658422D01*
X68521183Y-126658422D01*
X68705371Y-126997970D01*
X69568509Y-127341316D01*
X70497336Y-127328218D01*
X71294629Y-126997970D01*
X71478817Y-126658422D01*
X133521183Y-126658422D01*
X133705371Y-126997970D01*
X134568509Y-127341316D01*
X135497336Y-127328218D01*
X136294629Y-126997970D01*
X136478817Y-126658422D01*
X135000000Y-125179605D01*
X133521183Y-126658422D01*
X71478817Y-126658422D01*
X70000000Y-125179605D01*
X68521183Y-126658422D01*
X65710000Y-126658422D01*
X65710000Y-124568509D01*
X67658684Y-124568509D01*
X67671782Y-125497336D01*
X68002030Y-126294629D01*
X68341578Y-126478817D01*
X69820395Y-125000000D01*
X70179605Y-125000000D01*
X71658422Y-126478817D01*
X71997970Y-126294629D01*
X72341316Y-125431491D01*
X72329147Y-124568509D01*
X132658684Y-124568509D01*
X132671782Y-125497336D01*
X133002030Y-126294629D01*
X133341578Y-126478817D01*
X134820395Y-125000000D01*
X135179605Y-125000000D01*
X136658422Y-126478817D01*
X136997970Y-126294629D01*
X137341316Y-125431491D01*
X137328218Y-124502664D01*
X136997970Y-123705371D01*
X136658422Y-123521183D01*
X135179605Y-125000000D01*
X134820395Y-125000000D01*
X133341578Y-123521183D01*
X133002030Y-123705371D01*
X132658684Y-124568509D01*
X72329147Y-124568509D01*
X72328218Y-124502664D01*
X71997970Y-123705371D01*
X71658422Y-123521183D01*
X70179605Y-125000000D01*
X69820395Y-125000000D01*
X68341578Y-123521183D01*
X68002030Y-123705371D01*
X67658684Y-124568509D01*
X65710000Y-124568509D01*
X65710000Y-123341578D01*
X68521183Y-123341578D01*
X70000000Y-124820395D01*
X71478817Y-123341578D01*
X133521183Y-123341578D01*
X135000000Y-124820395D01*
X136478817Y-123341578D01*
X136294629Y-123002030D01*
X135431491Y-122658684D01*
X134502664Y-122671782D01*
X133705371Y-123002030D01*
X133521183Y-123341578D01*
X71478817Y-123341578D01*
X71294629Y-123002030D01*
X70431491Y-122658684D01*
X69502664Y-122671782D01*
X68705371Y-123002030D01*
X68521183Y-123341578D01*
X65710000Y-123341578D01*
X65710000Y-110935750D01*
X72225000Y-110935750D01*
X72225000Y-112526309D01*
X72321673Y-112759698D01*
X72500301Y-112938327D01*
X72733690Y-113035000D01*
X73374250Y-113035000D01*
X73533000Y-112876250D01*
X73533000Y-110777000D01*
X73787000Y-110777000D01*
X73787000Y-112876250D01*
X73945750Y-113035000D01*
X74586310Y-113035000D01*
X74819699Y-112938327D01*
X74998327Y-112759698D01*
X75095000Y-112526309D01*
X75095000Y-110935750D01*
X74936250Y-110777000D01*
X73787000Y-110777000D01*
X73533000Y-110777000D01*
X72383750Y-110777000D01*
X72225000Y-110935750D01*
X65710000Y-110935750D01*
X65710000Y-108773691D01*
X72225000Y-108773691D01*
X72225000Y-110364250D01*
X72383750Y-110523000D01*
X73533000Y-110523000D01*
X73533000Y-108423750D01*
X73787000Y-108423750D01*
X73787000Y-110523000D01*
X74936250Y-110523000D01*
X75095000Y-110364250D01*
X75095000Y-108773691D01*
X74998327Y-108540302D01*
X74819699Y-108361673D01*
X74586310Y-108265000D01*
X73945750Y-108265000D01*
X73787000Y-108423750D01*
X73533000Y-108423750D01*
X73374250Y-108265000D01*
X72733690Y-108265000D01*
X72500301Y-108361673D01*
X72321673Y-108540302D01*
X72225000Y-108773691D01*
X65710000Y-108773691D01*
X65710000Y-103500000D01*
X72212560Y-103500000D01*
X72212560Y-107000000D01*
X72256838Y-107235317D01*
X72395910Y-107451441D01*
X72608110Y-107596431D01*
X72860000Y-107647440D01*
X74460000Y-107647440D01*
X74695317Y-107603162D01*
X74911441Y-107464090D01*
X75056431Y-107251890D01*
X75107440Y-107000000D01*
X75107440Y-106385000D01*
X79359062Y-106385000D01*
X79383110Y-106401431D01*
X79575000Y-106440290D01*
X79575000Y-106779868D01*
X79227434Y-107127434D01*
X78981397Y-107495654D01*
X78895000Y-107930000D01*
X78895000Y-109358156D01*
X78828559Y-109400910D01*
X78683569Y-109613110D01*
X78632560Y-109865000D01*
X78632560Y-111115000D01*
X78676838Y-111350317D01*
X78815910Y-111566441D01*
X79028110Y-111711431D01*
X79280000Y-111762440D01*
X80780000Y-111762440D01*
X81015317Y-111718162D01*
X81231441Y-111579090D01*
X81277969Y-111510994D01*
X81420302Y-111653327D01*
X81653691Y-111750000D01*
X82244250Y-111750000D01*
X82403000Y-111591250D01*
X82403000Y-110617000D01*
X82657000Y-110617000D01*
X82657000Y-111591250D01*
X82815750Y-111750000D01*
X83406309Y-111750000D01*
X83639698Y-111653327D01*
X83818327Y-111474699D01*
X83915000Y-111241310D01*
X83915000Y-110775750D01*
X84995000Y-110775750D01*
X84995000Y-111241310D01*
X85091673Y-111474699D01*
X85270302Y-111653327D01*
X85503691Y-111750000D01*
X86094250Y-111750000D01*
X86253000Y-111591250D01*
X86253000Y-110617000D01*
X85153750Y-110617000D01*
X84995000Y-110775750D01*
X83915000Y-110775750D01*
X83756250Y-110617000D01*
X82657000Y-110617000D01*
X82403000Y-110617000D01*
X82383000Y-110617000D01*
X82383000Y-110363000D01*
X82403000Y-110363000D01*
X82403000Y-109388750D01*
X82657000Y-109388750D01*
X82657000Y-110363000D01*
X83756250Y-110363000D01*
X83915000Y-110204250D01*
X83915000Y-109738690D01*
X84995000Y-109738690D01*
X84995000Y-110204250D01*
X85153750Y-110363000D01*
X86253000Y-110363000D01*
X86253000Y-109388750D01*
X86094250Y-109230000D01*
X85503691Y-109230000D01*
X85270302Y-109326673D01*
X85091673Y-109505301D01*
X84995000Y-109738690D01*
X83915000Y-109738690D01*
X83818327Y-109505301D01*
X83639698Y-109326673D01*
X83406309Y-109230000D01*
X82815750Y-109230000D01*
X82657000Y-109388750D01*
X82403000Y-109388750D01*
X82244250Y-109230000D01*
X81653691Y-109230000D01*
X81420302Y-109326673D01*
X81279064Y-109467910D01*
X81244090Y-109413559D01*
X81165000Y-109359519D01*
X81165000Y-108400132D01*
X81512566Y-108052566D01*
X81575335Y-107958625D01*
X81758603Y-107684346D01*
X81845000Y-107250000D01*
X81845000Y-106441150D01*
X82020317Y-106408162D01*
X82236441Y-106269090D01*
X82381431Y-106056890D01*
X82432440Y-105805000D01*
X82432440Y-104505000D01*
X82388162Y-104269683D01*
X82249090Y-104053559D01*
X82036890Y-103908569D01*
X81785000Y-103857560D01*
X79635000Y-103857560D01*
X79399683Y-103901838D01*
X79183559Y-104040910D01*
X79132935Y-104115000D01*
X75107440Y-104115000D01*
X75107440Y-103500000D01*
X75063162Y-103264683D01*
X74924090Y-103048559D01*
X74795000Y-102960356D01*
X74795000Y-99530132D01*
X75732566Y-98592566D01*
X75786020Y-98512566D01*
X75978603Y-98224346D01*
X76065000Y-97790000D01*
X76065000Y-94410854D01*
X76265317Y-94373162D01*
X76481441Y-94234090D01*
X76626431Y-94021890D01*
X76677440Y-93770000D01*
X76677440Y-91270000D01*
X76633162Y-91034683D01*
X76494090Y-90818559D01*
X76281890Y-90673569D01*
X76030000Y-90622560D01*
X73830000Y-90622560D01*
X73594683Y-90666838D01*
X73378559Y-90805910D01*
X73233569Y-91018110D01*
X73182560Y-91270000D01*
X73182560Y-93770000D01*
X73226838Y-94005317D01*
X73365910Y-94221441D01*
X73578110Y-94366431D01*
X73795000Y-94410352D01*
X73795000Y-97319868D01*
X72857434Y-98257434D01*
X72611397Y-98625654D01*
X72525000Y-99060000D01*
X72525000Y-102960982D01*
X72408559Y-103035910D01*
X72263569Y-103248110D01*
X72212560Y-103500000D01*
X65710000Y-103500000D01*
X65710000Y-86570000D01*
X73182560Y-86570000D01*
X73182560Y-89070000D01*
X73226838Y-89305317D01*
X73365910Y-89521441D01*
X73578110Y-89666431D01*
X73830000Y-89717440D01*
X76030000Y-89717440D01*
X76265317Y-89673162D01*
X76481441Y-89534090D01*
X76626431Y-89321890D01*
X76677440Y-89070000D01*
X76677440Y-86570000D01*
X76633162Y-86334683D01*
X76494090Y-86118559D01*
X76281890Y-85973569D01*
X76065000Y-85929648D01*
X76065000Y-82873795D01*
X78374716Y-82873795D01*
X78623106Y-83474943D01*
X78795000Y-83647138D01*
X78795000Y-86473156D01*
X78728559Y-86515910D01*
X78583569Y-86728110D01*
X78532560Y-86980000D01*
X78532560Y-88280000D01*
X78576838Y-88515317D01*
X78715910Y-88731441D01*
X78928110Y-88876431D01*
X79180000Y-88927440D01*
X80680000Y-88927440D01*
X80915317Y-88883162D01*
X81131441Y-88744090D01*
X81276431Y-88531890D01*
X81279081Y-88518803D01*
X81415910Y-88731441D01*
X81495000Y-88785481D01*
X81495000Y-89619868D01*
X80667434Y-90447434D01*
X80421397Y-90815654D01*
X80335000Y-91250000D01*
X80335000Y-92232560D01*
X80220000Y-92232560D01*
X79984683Y-92276838D01*
X79768559Y-92415910D01*
X79623569Y-92628110D01*
X79572560Y-92880000D01*
X79572560Y-95080000D01*
X79616838Y-95315317D01*
X79755910Y-95531441D01*
X79968110Y-95676431D01*
X80220000Y-95727440D01*
X80335000Y-95727440D01*
X80335000Y-97129868D01*
X79907434Y-97557434D01*
X79661397Y-97925654D01*
X79575000Y-98360000D01*
X79575000Y-99298850D01*
X79399683Y-99331838D01*
X79183559Y-99470910D01*
X79038569Y-99683110D01*
X78987560Y-99935000D01*
X78987560Y-101235000D01*
X79031838Y-101470317D01*
X79170910Y-101686441D01*
X79383110Y-101831431D01*
X79635000Y-101882440D01*
X81785000Y-101882440D01*
X82020317Y-101838162D01*
X82236441Y-101699090D01*
X82381431Y-101486890D01*
X82432440Y-101235000D01*
X82432440Y-99935000D01*
X82388162Y-99699683D01*
X82249090Y-99483559D01*
X82036890Y-99338569D01*
X81845000Y-99299710D01*
X81845000Y-98830132D01*
X82272566Y-98402566D01*
X82518603Y-98034346D01*
X82605000Y-97600000D01*
X82605000Y-95727440D01*
X82720000Y-95727440D01*
X82955317Y-95683162D01*
X83171441Y-95544090D01*
X83316431Y-95331890D01*
X83367440Y-95080000D01*
X83367440Y-92880000D01*
X83323162Y-92644683D01*
X83184090Y-92428559D01*
X82971890Y-92283569D01*
X82720000Y-92232560D01*
X82605000Y-92232560D01*
X82605000Y-91720132D01*
X83432566Y-90892566D01*
X83578895Y-90673569D01*
X83678603Y-90524346D01*
X83765000Y-90090000D01*
X83765000Y-88786844D01*
X83798946Y-88765000D01*
X85115025Y-88765000D01*
X85278110Y-88876431D01*
X85530000Y-88927440D01*
X87030000Y-88927440D01*
X87265317Y-88883162D01*
X87481441Y-88744090D01*
X87626431Y-88531890D01*
X87629081Y-88518803D01*
X87765910Y-88731441D01*
X87845000Y-88785481D01*
X87845000Y-92401850D01*
X87671890Y-92283569D01*
X87420000Y-92232560D01*
X84920000Y-92232560D01*
X84684683Y-92276838D01*
X84468559Y-92415910D01*
X84323569Y-92628110D01*
X84272560Y-92880000D01*
X84272560Y-95080000D01*
X84316838Y-95315317D01*
X84455910Y-95531441D01*
X84668110Y-95676431D01*
X84920000Y-95727440D01*
X87420000Y-95727440D01*
X87655317Y-95683162D01*
X87845000Y-95561104D01*
X87845000Y-97239868D01*
X86572434Y-98512434D01*
X86326397Y-98880654D01*
X86240000Y-99315000D01*
X86240000Y-99472560D01*
X84525000Y-99472560D01*
X84289683Y-99516838D01*
X84073559Y-99655910D01*
X83928569Y-99868110D01*
X83877560Y-100120000D01*
X83877560Y-105620000D01*
X83921838Y-105855317D01*
X84060910Y-106071441D01*
X84273110Y-106216431D01*
X84525000Y-106267440D01*
X86240000Y-106267440D01*
X86240000Y-106425000D01*
X86326397Y-106859346D01*
X86437789Y-107026055D01*
X86572434Y-107227566D01*
X87745000Y-108400132D01*
X87745000Y-109358156D01*
X87678559Y-109400910D01*
X87632031Y-109469006D01*
X87489698Y-109326673D01*
X87256309Y-109230000D01*
X86665750Y-109230000D01*
X86507000Y-109388750D01*
X86507000Y-110363000D01*
X86527000Y-110363000D01*
X86527000Y-110617000D01*
X86507000Y-110617000D01*
X86507000Y-111591250D01*
X86665750Y-111750000D01*
X87256309Y-111750000D01*
X87489698Y-111653327D01*
X87630936Y-111512090D01*
X87665910Y-111566441D01*
X87878110Y-111711431D01*
X88130000Y-111762440D01*
X89630000Y-111762440D01*
X89865317Y-111718162D01*
X90081441Y-111579090D01*
X90226431Y-111366890D01*
X90277440Y-111115000D01*
X90277440Y-109865000D01*
X90233162Y-109629683D01*
X90094090Y-109413559D01*
X90015000Y-109359519D01*
X90015000Y-108220000D01*
X100202560Y-108220000D01*
X100202560Y-110220000D01*
X100246838Y-110455317D01*
X100385910Y-110671441D01*
X100598110Y-110816431D01*
X100850000Y-110867440D01*
X102350000Y-110867440D01*
X102585317Y-110823162D01*
X102801441Y-110684090D01*
X102946431Y-110471890D01*
X102994782Y-110233126D01*
X103160657Y-110481375D01*
X103609983Y-110781605D01*
X104140000Y-110887032D01*
X104670017Y-110781605D01*
X105119343Y-110481375D01*
X105410000Y-110046376D01*
X105700657Y-110481375D01*
X106149983Y-110781605D01*
X106680000Y-110887032D01*
X107210017Y-110781605D01*
X107659343Y-110481375D01*
X107959573Y-110032049D01*
X108065000Y-109502032D01*
X108065000Y-108937968D01*
X107959573Y-108407951D01*
X107659343Y-107958625D01*
X107630446Y-107939317D01*
X107929964Y-107551721D01*
X108072739Y-107026055D01*
X107911868Y-106807000D01*
X106807000Y-106807000D01*
X106807000Y-106827000D01*
X106553000Y-106827000D01*
X106553000Y-106807000D01*
X106533000Y-106807000D01*
X106533000Y-106553000D01*
X106553000Y-106553000D01*
X106553000Y-105210344D01*
X106807000Y-105210344D01*
X106807000Y-106553000D01*
X107911868Y-106553000D01*
X108072739Y-106333945D01*
X107929964Y-105808279D01*
X107596894Y-105377264D01*
X107124235Y-105106519D01*
X107021185Y-105087682D01*
X106807000Y-105210344D01*
X106553000Y-105210344D01*
X106338815Y-105087682D01*
X106235765Y-105106519D01*
X105763106Y-105377264D01*
X105430036Y-105808279D01*
X105415489Y-105861839D01*
X105119343Y-105418625D01*
X104670017Y-105118395D01*
X104140000Y-105012968D01*
X103609983Y-105118395D01*
X103160657Y-105418625D01*
X102870000Y-105853624D01*
X102579343Y-105418625D01*
X102130017Y-105118395D01*
X101600000Y-105012968D01*
X101069983Y-105118395D01*
X100620657Y-105418625D01*
X100320427Y-105867951D01*
X100215000Y-106397968D01*
X100215000Y-106962032D01*
X100320427Y-107492049D01*
X100467214Y-107711732D01*
X100398559Y-107755910D01*
X100253569Y-107968110D01*
X100202560Y-108220000D01*
X90015000Y-108220000D01*
X90015000Y-107930000D01*
X89928603Y-107495654D01*
X89682566Y-107127434D01*
X88822572Y-106267440D01*
X90225000Y-106267440D01*
X90460317Y-106223162D01*
X90676441Y-106084090D01*
X90821431Y-105871890D01*
X90872440Y-105620000D01*
X90872440Y-104005000D01*
X91009146Y-104005000D01*
X91046838Y-104205317D01*
X91185910Y-104421441D01*
X91398110Y-104566431D01*
X91650000Y-104617440D01*
X94150000Y-104617440D01*
X94385317Y-104573162D01*
X94601441Y-104434090D01*
X94746431Y-104221890D01*
X94797440Y-103970000D01*
X94797440Y-101770000D01*
X95702560Y-101770000D01*
X95702560Y-103970000D01*
X95746838Y-104205317D01*
X95885910Y-104421441D01*
X96098110Y-104566431D01*
X96350000Y-104617440D01*
X98850000Y-104617440D01*
X99085317Y-104573162D01*
X99301441Y-104434090D01*
X99446431Y-104221890D01*
X99490352Y-104005000D01*
X100422796Y-104005000D01*
X100672637Y-104255278D01*
X101273352Y-104504716D01*
X101923795Y-104505284D01*
X102524943Y-104256894D01*
X102985278Y-103797363D01*
X103234716Y-103196648D01*
X103235284Y-102546205D01*
X102986894Y-101945057D01*
X102527363Y-101484722D01*
X101926648Y-101235284D01*
X101276205Y-101234716D01*
X100675057Y-101483106D01*
X100422722Y-101735000D01*
X99490854Y-101735000D01*
X99453162Y-101534683D01*
X99314090Y-101318559D01*
X99101890Y-101173569D01*
X98850000Y-101122560D01*
X96350000Y-101122560D01*
X96114683Y-101166838D01*
X95898559Y-101305910D01*
X95753569Y-101518110D01*
X95702560Y-101770000D01*
X94797440Y-101770000D01*
X94753162Y-101534683D01*
X94614090Y-101318559D01*
X94401890Y-101173569D01*
X94150000Y-101122560D01*
X91650000Y-101122560D01*
X91414683Y-101166838D01*
X91198559Y-101305910D01*
X91053569Y-101518110D01*
X91009648Y-101735000D01*
X90872440Y-101735000D01*
X90872440Y-100120000D01*
X90828162Y-99884683D01*
X90689090Y-99668559D01*
X90476890Y-99523569D01*
X90225000Y-99472560D01*
X88822572Y-99472560D01*
X89782566Y-98512566D01*
X89947051Y-98266397D01*
X90028603Y-98144346D01*
X90115000Y-97710000D01*
X90115000Y-93980000D01*
X94598071Y-93980000D01*
X94707304Y-94529151D01*
X95018373Y-94994698D01*
X95483920Y-95305767D01*
X96033071Y-95415000D01*
X97006929Y-95415000D01*
X97556080Y-95305767D01*
X98021627Y-94994698D01*
X98332696Y-94529151D01*
X98441929Y-93980000D01*
X98332696Y-93430849D01*
X98021627Y-92965302D01*
X97642738Y-92712136D01*
X98074500Y-92364896D01*
X98344367Y-91871819D01*
X98361904Y-91789039D01*
X98239915Y-91567000D01*
X96647000Y-91567000D01*
X96647000Y-91587000D01*
X96393000Y-91587000D01*
X96393000Y-91567000D01*
X94800085Y-91567000D01*
X94678096Y-91789039D01*
X94695633Y-91871819D01*
X94965500Y-92364896D01*
X95397262Y-92712136D01*
X95018373Y-92965302D01*
X94707304Y-93430849D01*
X94598071Y-93980000D01*
X90115000Y-93980000D01*
X90115000Y-88786844D01*
X90181441Y-88744090D01*
X90326431Y-88531890D01*
X90377440Y-88280000D01*
X90377440Y-86980000D01*
X90333162Y-86744683D01*
X90194090Y-86528559D01*
X89981890Y-86383569D01*
X89730000Y-86332560D01*
X88230000Y-86332560D01*
X87994683Y-86376838D01*
X87778559Y-86515910D01*
X87633569Y-86728110D01*
X87630919Y-86741197D01*
X87494090Y-86528559D01*
X87281890Y-86383569D01*
X87030000Y-86332560D01*
X85530000Y-86332560D01*
X85294683Y-86376838D01*
X85111054Y-86495000D01*
X83794975Y-86495000D01*
X83631890Y-86383569D01*
X83380000Y-86332560D01*
X81880000Y-86332560D01*
X81644683Y-86376838D01*
X81428559Y-86515910D01*
X81283569Y-86728110D01*
X81280919Y-86741197D01*
X81144090Y-86528559D01*
X81065000Y-86474519D01*
X81065000Y-83807064D01*
X81395278Y-83477363D01*
X81644716Y-82876648D01*
X81644718Y-82873795D01*
X88534716Y-82873795D01*
X88783106Y-83474943D01*
X89242637Y-83935278D01*
X89843352Y-84184716D01*
X90493795Y-84185284D01*
X91094943Y-83936894D01*
X91555278Y-83477363D01*
X91804716Y-82876648D01*
X91805284Y-82226205D01*
X91556894Y-81625057D01*
X91305000Y-81372722D01*
X91305000Y-79169018D01*
X91421441Y-79094090D01*
X91566431Y-78881890D01*
X91617440Y-78630000D01*
X91617440Y-75630000D01*
X91573162Y-75394683D01*
X91434090Y-75178559D01*
X91221890Y-75033569D01*
X90970000Y-74982560D01*
X89370000Y-74982560D01*
X89134683Y-75026838D01*
X88918559Y-75165910D01*
X88773569Y-75378110D01*
X88722560Y-75630000D01*
X88722560Y-78630000D01*
X88766838Y-78865317D01*
X88905910Y-79081441D01*
X89035000Y-79169644D01*
X89035000Y-81372796D01*
X88784722Y-81622637D01*
X88535284Y-82223352D01*
X88534716Y-82873795D01*
X81644718Y-82873795D01*
X81645284Y-82226205D01*
X81396894Y-81625057D01*
X80937363Y-81164722D01*
X80336648Y-80915284D01*
X79686205Y-80914716D01*
X79085057Y-81163106D01*
X78624722Y-81622637D01*
X78375284Y-82223352D01*
X78374716Y-82873795D01*
X76065000Y-82873795D01*
X76065000Y-79917204D01*
X76315278Y-79667363D01*
X76564716Y-79066648D01*
X76565284Y-78416205D01*
X76316894Y-77815057D01*
X75857363Y-77354722D01*
X75256648Y-77105284D01*
X74606205Y-77104716D01*
X74005057Y-77353106D01*
X73544722Y-77812637D01*
X73295284Y-78413352D01*
X73294716Y-79063795D01*
X73543106Y-79664943D01*
X73795000Y-79917278D01*
X73795000Y-85929146D01*
X73594683Y-85966838D01*
X73378559Y-86105910D01*
X73233569Y-86318110D01*
X73182560Y-86570000D01*
X65710000Y-86570000D01*
X65710000Y-81090159D01*
X68949446Y-81090159D01*
X69035852Y-81346643D01*
X69609336Y-81556458D01*
X70219460Y-81530839D01*
X70664148Y-81346643D01*
X70750554Y-81090159D01*
X69850000Y-80189605D01*
X68949446Y-81090159D01*
X65710000Y-81090159D01*
X65710000Y-76570000D01*
X68302560Y-76570000D01*
X68302560Y-78370000D01*
X68346838Y-78605317D01*
X68485910Y-78821441D01*
X68689574Y-78960598D01*
X68655282Y-78994890D01*
X68769839Y-79109447D01*
X68513357Y-79195852D01*
X68303542Y-79769336D01*
X68329161Y-80379460D01*
X68513357Y-80824148D01*
X68769841Y-80910554D01*
X69670395Y-80010000D01*
X69656253Y-79995858D01*
X69835858Y-79816253D01*
X69850000Y-79830395D01*
X69864143Y-79816253D01*
X70043748Y-79995858D01*
X70029605Y-80010000D01*
X70930159Y-80910554D01*
X71186643Y-80824148D01*
X71396458Y-80250664D01*
X71370839Y-79640540D01*
X71186643Y-79195852D01*
X70930161Y-79109447D01*
X71044718Y-78994890D01*
X71008240Y-78958412D01*
X71201441Y-78834090D01*
X71346431Y-78621890D01*
X71397440Y-78370000D01*
X71397440Y-76570000D01*
X71353162Y-76334683D01*
X71214090Y-76118559D01*
X71001890Y-75973569D01*
X70750000Y-75922560D01*
X68950000Y-75922560D01*
X68714683Y-75966838D01*
X68498559Y-76105910D01*
X68353569Y-76318110D01*
X68302560Y-76570000D01*
X65710000Y-76570000D01*
X65710000Y-73015750D01*
X88735000Y-73015750D01*
X88735000Y-74356309D01*
X88831673Y-74589698D01*
X89010301Y-74768327D01*
X89243690Y-74865000D01*
X89884250Y-74865000D01*
X90043000Y-74706250D01*
X90043000Y-72857000D01*
X90297000Y-72857000D01*
X90297000Y-74706250D01*
X90455750Y-74865000D01*
X91096310Y-74865000D01*
X91329699Y-74768327D01*
X91508327Y-74589698D01*
X91605000Y-74356309D01*
X91605000Y-73015750D01*
X91446250Y-72857000D01*
X90297000Y-72857000D01*
X90043000Y-72857000D01*
X88893750Y-72857000D01*
X88735000Y-73015750D01*
X65710000Y-73015750D01*
X65710000Y-71103691D01*
X88735000Y-71103691D01*
X88735000Y-72444250D01*
X88893750Y-72603000D01*
X90043000Y-72603000D01*
X90043000Y-70753750D01*
X90297000Y-70753750D01*
X90297000Y-72603000D01*
X91446250Y-72603000D01*
X91605000Y-72444250D01*
X91605000Y-71103691D01*
X91508327Y-70870302D01*
X91329699Y-70691673D01*
X91096310Y-70595000D01*
X90455750Y-70595000D01*
X90297000Y-70753750D01*
X90043000Y-70753750D01*
X89884250Y-70595000D01*
X89243690Y-70595000D01*
X89010301Y-70691673D01*
X88831673Y-70870302D01*
X88735000Y-71103691D01*
X65710000Y-71103691D01*
X65710000Y-62498344D01*
X81194765Y-62498344D01*
X81400617Y-62996543D01*
X81781452Y-63378043D01*
X82279291Y-63584764D01*
X82818344Y-63585235D01*
X83316543Y-63379383D01*
X83698043Y-62998548D01*
X83904764Y-62500709D01*
X83905235Y-61961656D01*
X83699383Y-61463457D01*
X83318548Y-61081957D01*
X83040884Y-60966661D01*
X83255869Y-60877611D01*
X83320169Y-60639774D01*
X82550000Y-59869605D01*
X81779831Y-60639774D01*
X81844131Y-60877611D01*
X82076172Y-60959669D01*
X81783457Y-61080617D01*
X81401957Y-61461452D01*
X81195236Y-61959291D01*
X81194765Y-62498344D01*
X65710000Y-62498344D01*
X65710000Y-61658422D01*
X68521183Y-61658422D01*
X68705371Y-61997970D01*
X69568509Y-62341316D01*
X70497336Y-62328218D01*
X71294629Y-61997970D01*
X71478817Y-61658422D01*
X70000000Y-60179605D01*
X68521183Y-61658422D01*
X65710000Y-61658422D01*
X65710000Y-59568509D01*
X67658684Y-59568509D01*
X67671782Y-60497336D01*
X68002030Y-61294629D01*
X68341578Y-61478817D01*
X69820395Y-60000000D01*
X70179605Y-60000000D01*
X71658422Y-61478817D01*
X71997970Y-61294629D01*
X72341316Y-60431491D01*
X72328218Y-59502664D01*
X72323943Y-59492342D01*
X81182667Y-59492342D01*
X81211108Y-60030644D01*
X81362389Y-60395869D01*
X81600226Y-60460169D01*
X82370395Y-59690000D01*
X82729605Y-59690000D01*
X83499774Y-60460169D01*
X83737611Y-60395869D01*
X83917333Y-59887658D01*
X83888892Y-59349356D01*
X83737611Y-58984131D01*
X83499774Y-58919831D01*
X82729605Y-59690000D01*
X82370395Y-59690000D01*
X81600226Y-58919831D01*
X81362389Y-58984131D01*
X81182667Y-59492342D01*
X72323943Y-59492342D01*
X71997970Y-58705371D01*
X71658422Y-58521183D01*
X70179605Y-60000000D01*
X69820395Y-60000000D01*
X68341578Y-58521183D01*
X68002030Y-58705371D01*
X67658684Y-59568509D01*
X65710000Y-59568509D01*
X65710000Y-58341578D01*
X68521183Y-58341578D01*
X70000000Y-59820395D01*
X71478817Y-58341578D01*
X71347651Y-58099774D01*
X81779831Y-58099774D01*
X81844131Y-58337611D01*
X82058728Y-58413500D01*
X81844131Y-58502389D01*
X81779831Y-58740226D01*
X82550000Y-59510395D01*
X83320169Y-58740226D01*
X83255869Y-58502389D01*
X83041272Y-58426500D01*
X83056964Y-58420000D01*
X94598071Y-58420000D01*
X94707304Y-58969151D01*
X95018373Y-59434698D01*
X95400459Y-59690000D01*
X95018373Y-59945302D01*
X94707304Y-60410849D01*
X94598071Y-60960000D01*
X94707304Y-61509151D01*
X95018373Y-61974698D01*
X95400459Y-62230000D01*
X95018373Y-62485302D01*
X94707304Y-62950849D01*
X94598071Y-63500000D01*
X94707304Y-64049151D01*
X95018373Y-64514698D01*
X95400459Y-64770000D01*
X95018373Y-65025302D01*
X94707304Y-65490849D01*
X94598071Y-66040000D01*
X94707304Y-66589151D01*
X95018373Y-67054698D01*
X95400459Y-67310000D01*
X95018373Y-67565302D01*
X94707304Y-68030849D01*
X94598071Y-68580000D01*
X94707304Y-69129151D01*
X95018373Y-69594698D01*
X95400459Y-69850000D01*
X95018373Y-70105302D01*
X94707304Y-70570849D01*
X94598071Y-71120000D01*
X94707304Y-71669151D01*
X95018373Y-72134698D01*
X95400459Y-72390000D01*
X95018373Y-72645302D01*
X94707304Y-73110849D01*
X94598071Y-73660000D01*
X94707304Y-74209151D01*
X95018373Y-74674698D01*
X95400459Y-74930000D01*
X95018373Y-75185302D01*
X94707304Y-75650849D01*
X94598071Y-76200000D01*
X94707304Y-76749151D01*
X95018373Y-77214698D01*
X95400459Y-77470000D01*
X95018373Y-77725302D01*
X94707304Y-78190849D01*
X94598071Y-78740000D01*
X94707304Y-79289151D01*
X95018373Y-79754698D01*
X95400459Y-80010000D01*
X95018373Y-80265302D01*
X94707304Y-80730849D01*
X94598071Y-81280000D01*
X94707304Y-81829151D01*
X95018373Y-82294698D01*
X95400459Y-82550000D01*
X95018373Y-82805302D01*
X94707304Y-83270849D01*
X94598071Y-83820000D01*
X94707304Y-84369151D01*
X95018373Y-84834698D01*
X95400459Y-85090000D01*
X95018373Y-85345302D01*
X94707304Y-85810849D01*
X94598071Y-86360000D01*
X94707304Y-86909151D01*
X95018373Y-87374698D01*
X95400459Y-87630000D01*
X95018373Y-87885302D01*
X94707304Y-88350849D01*
X94598071Y-88900000D01*
X94707304Y-89449151D01*
X95018373Y-89914698D01*
X95397262Y-90167864D01*
X94965500Y-90515104D01*
X94695633Y-91008181D01*
X94678096Y-91090961D01*
X94800085Y-91313000D01*
X96393000Y-91313000D01*
X96393000Y-91293000D01*
X96647000Y-91293000D01*
X96647000Y-91313000D01*
X98239915Y-91313000D01*
X98361904Y-91090961D01*
X98344367Y-91008181D01*
X98074500Y-90515104D01*
X97642738Y-90167864D01*
X98021627Y-89914698D01*
X98332696Y-89449151D01*
X98441929Y-88900000D01*
X109838071Y-88900000D01*
X109947304Y-89449151D01*
X110258373Y-89914698D01*
X110640459Y-90170000D01*
X110258373Y-90425302D01*
X109947304Y-90890849D01*
X109838071Y-91440000D01*
X109947304Y-91989151D01*
X110258373Y-92454698D01*
X110404587Y-92552395D01*
X110274683Y-92576838D01*
X110058559Y-92715910D01*
X109913569Y-92928110D01*
X109862560Y-93180000D01*
X109862560Y-94780000D01*
X109906838Y-95015317D01*
X110045910Y-95231441D01*
X110258110Y-95376431D01*
X110510000Y-95427440D01*
X113010000Y-95427440D01*
X113245317Y-95383162D01*
X113461441Y-95244090D01*
X113606431Y-95031890D01*
X113657440Y-94780000D01*
X113657440Y-93180000D01*
X113629930Y-93033795D01*
X131714716Y-93033795D01*
X131963106Y-93634943D01*
X132422637Y-94095278D01*
X133023352Y-94344716D01*
X133673795Y-94345284D01*
X134274943Y-94096894D01*
X134337196Y-94034749D01*
X134351673Y-94069699D01*
X134530302Y-94248327D01*
X134763691Y-94345000D01*
X135604250Y-94345000D01*
X135763000Y-94186250D01*
X135763000Y-92837000D01*
X136017000Y-92837000D01*
X136017000Y-94186250D01*
X136175750Y-94345000D01*
X137016309Y-94345000D01*
X137249698Y-94248327D01*
X137428327Y-94069699D01*
X137525000Y-93836310D01*
X137525000Y-92995750D01*
X137366250Y-92837000D01*
X136017000Y-92837000D01*
X135763000Y-92837000D01*
X135743000Y-92837000D01*
X135743000Y-92583000D01*
X135763000Y-92583000D01*
X135763000Y-91233750D01*
X136017000Y-91233750D01*
X136017000Y-92583000D01*
X137366250Y-92583000D01*
X137525000Y-92424250D01*
X137525000Y-91583690D01*
X137428327Y-91350301D01*
X137249698Y-91171673D01*
X137016309Y-91075000D01*
X136175750Y-91075000D01*
X136017000Y-91233750D01*
X135763000Y-91233750D01*
X135604250Y-91075000D01*
X134763691Y-91075000D01*
X134530302Y-91171673D01*
X134351673Y-91350301D01*
X134337369Y-91384833D01*
X134277363Y-91324722D01*
X133676648Y-91075284D01*
X133026205Y-91074716D01*
X132425057Y-91323106D01*
X131964722Y-91782637D01*
X131715284Y-92383352D01*
X131714716Y-93033795D01*
X113629930Y-93033795D01*
X113613162Y-92944683D01*
X113474090Y-92728559D01*
X113261890Y-92583569D01*
X113113677Y-92553555D01*
X113261627Y-92454698D01*
X113572696Y-91989151D01*
X113681929Y-91440000D01*
X113572696Y-90890849D01*
X113261627Y-90425302D01*
X112879541Y-90170000D01*
X113261627Y-89914698D01*
X113572696Y-89449151D01*
X113681929Y-88900000D01*
X113572696Y-88350849D01*
X113261627Y-87885302D01*
X112882738Y-87632136D01*
X113314500Y-87284896D01*
X113584367Y-86791819D01*
X113601904Y-86709039D01*
X113479915Y-86487000D01*
X111887000Y-86487000D01*
X111887000Y-86507000D01*
X111633000Y-86507000D01*
X111633000Y-86487000D01*
X110040085Y-86487000D01*
X109918096Y-86709039D01*
X109935633Y-86791819D01*
X110205500Y-87284896D01*
X110637262Y-87632136D01*
X110258373Y-87885302D01*
X109947304Y-88350849D01*
X109838071Y-88900000D01*
X98441929Y-88900000D01*
X98332696Y-88350849D01*
X98021627Y-87885302D01*
X97639541Y-87630000D01*
X98021627Y-87374698D01*
X98332696Y-86909151D01*
X98441929Y-86360000D01*
X98332696Y-85810849D01*
X98021627Y-85345302D01*
X97639541Y-85090000D01*
X98021627Y-84834698D01*
X98332696Y-84369151D01*
X98441929Y-83820000D01*
X98332696Y-83270849D01*
X98021627Y-82805302D01*
X97639541Y-82550000D01*
X98021627Y-82294698D01*
X98332696Y-81829151D01*
X98441929Y-81280000D01*
X98332696Y-80730849D01*
X98021627Y-80265302D01*
X97639541Y-80010000D01*
X98021627Y-79754698D01*
X98332696Y-79289151D01*
X98441929Y-78740000D01*
X98332696Y-78190849D01*
X98021627Y-77725302D01*
X97639541Y-77470000D01*
X98021627Y-77214698D01*
X98332696Y-76749151D01*
X98441929Y-76200000D01*
X98332696Y-75650849D01*
X98021627Y-75185302D01*
X97639541Y-74930000D01*
X98021627Y-74674698D01*
X98332696Y-74209151D01*
X98441929Y-73660000D01*
X98332696Y-73110849D01*
X98021627Y-72645302D01*
X97639541Y-72390000D01*
X98021627Y-72134698D01*
X98332696Y-71669151D01*
X98441929Y-71120000D01*
X98332696Y-70570849D01*
X98021627Y-70105302D01*
X97639541Y-69850000D01*
X98021627Y-69594698D01*
X98332696Y-69129151D01*
X98441929Y-68580000D01*
X98332696Y-68030849D01*
X98021627Y-67565302D01*
X97639541Y-67310000D01*
X98021627Y-67054698D01*
X98332696Y-66589151D01*
X98441929Y-66040000D01*
X98332696Y-65490849D01*
X98021627Y-65025302D01*
X97639541Y-64770000D01*
X98021627Y-64514698D01*
X98332696Y-64049151D01*
X98441929Y-63500000D01*
X98332696Y-62950849D01*
X98021627Y-62485302D01*
X97639541Y-62230000D01*
X98021627Y-61974698D01*
X98332696Y-61509151D01*
X98441929Y-60960000D01*
X98332696Y-60410849D01*
X98021627Y-59945302D01*
X97639541Y-59690000D01*
X98021627Y-59434698D01*
X98332696Y-58969151D01*
X98441929Y-58420000D01*
X109838071Y-58420000D01*
X109947304Y-58969151D01*
X110258373Y-59434698D01*
X110640459Y-59690000D01*
X110258373Y-59945302D01*
X109947304Y-60410849D01*
X109838071Y-60960000D01*
X109947304Y-61509151D01*
X110258373Y-61974698D01*
X110640459Y-62230000D01*
X110258373Y-62485302D01*
X109947304Y-62950849D01*
X109838071Y-63500000D01*
X109947304Y-64049151D01*
X110258373Y-64514698D01*
X110640459Y-64770000D01*
X110258373Y-65025302D01*
X109947304Y-65490849D01*
X109838071Y-66040000D01*
X109947304Y-66589151D01*
X110258373Y-67054698D01*
X110640459Y-67310000D01*
X110258373Y-67565302D01*
X109947304Y-68030849D01*
X109838071Y-68580000D01*
X109947304Y-69129151D01*
X110258373Y-69594698D01*
X110640459Y-69850000D01*
X110258373Y-70105302D01*
X109947304Y-70570849D01*
X109838071Y-71120000D01*
X109947304Y-71669151D01*
X110258373Y-72134698D01*
X110640459Y-72390000D01*
X110258373Y-72645302D01*
X109947304Y-73110849D01*
X109838071Y-73660000D01*
X109947304Y-74209151D01*
X110258373Y-74674698D01*
X110640459Y-74930000D01*
X110258373Y-75185302D01*
X109947304Y-75650849D01*
X109838071Y-76200000D01*
X109947304Y-76749151D01*
X110258373Y-77214698D01*
X110640459Y-77470000D01*
X110258373Y-77725302D01*
X109947304Y-78190849D01*
X109838071Y-78740000D01*
X109947304Y-79289151D01*
X110258373Y-79754698D01*
X110640459Y-80010000D01*
X110258373Y-80265302D01*
X109947304Y-80730849D01*
X109838071Y-81280000D01*
X109947304Y-81829151D01*
X110258373Y-82294698D01*
X110640459Y-82550000D01*
X110258373Y-82805302D01*
X109947304Y-83270849D01*
X109838071Y-83820000D01*
X109947304Y-84369151D01*
X110258373Y-84834698D01*
X110637262Y-85087864D01*
X110205500Y-85435104D01*
X109935633Y-85928181D01*
X109918096Y-86010961D01*
X110040085Y-86233000D01*
X111633000Y-86233000D01*
X111633000Y-86213000D01*
X111887000Y-86213000D01*
X111887000Y-86233000D01*
X113479915Y-86233000D01*
X113601904Y-86010961D01*
X113584367Y-85928181D01*
X113314500Y-85435104D01*
X112882738Y-85087864D01*
X113261627Y-84834698D01*
X113572696Y-84369151D01*
X113617522Y-84143795D01*
X131714716Y-84143795D01*
X131963106Y-84744943D01*
X132422637Y-85205278D01*
X133023352Y-85454716D01*
X133673795Y-85455284D01*
X134274943Y-85206894D01*
X134337196Y-85144749D01*
X134351673Y-85179699D01*
X134530302Y-85358327D01*
X134763691Y-85455000D01*
X135604250Y-85455000D01*
X135763000Y-85296250D01*
X135763000Y-83947000D01*
X136017000Y-83947000D01*
X136017000Y-85296250D01*
X136175750Y-85455000D01*
X137016309Y-85455000D01*
X137249698Y-85358327D01*
X137428327Y-85179699D01*
X137525000Y-84946310D01*
X137525000Y-84105750D01*
X137366250Y-83947000D01*
X136017000Y-83947000D01*
X135763000Y-83947000D01*
X135743000Y-83947000D01*
X135743000Y-83693000D01*
X135763000Y-83693000D01*
X135763000Y-82343750D01*
X136017000Y-82343750D01*
X136017000Y-83693000D01*
X137366250Y-83693000D01*
X137525000Y-83534250D01*
X137525000Y-82693690D01*
X137428327Y-82460301D01*
X137249698Y-82281673D01*
X137016309Y-82185000D01*
X136175750Y-82185000D01*
X136017000Y-82343750D01*
X135763000Y-82343750D01*
X135604250Y-82185000D01*
X134763691Y-82185000D01*
X134530302Y-82281673D01*
X134351673Y-82460301D01*
X134337369Y-82494833D01*
X134277363Y-82434722D01*
X133676648Y-82185284D01*
X133026205Y-82184716D01*
X132425057Y-82433106D01*
X131964722Y-82892637D01*
X131715284Y-83493352D01*
X131714716Y-84143795D01*
X113617522Y-84143795D01*
X113681929Y-83820000D01*
X113572696Y-83270849D01*
X113261627Y-82805302D01*
X112879541Y-82550000D01*
X113261627Y-82294698D01*
X113572696Y-81829151D01*
X113681929Y-81280000D01*
X113572696Y-80730849D01*
X113261627Y-80265302D01*
X112879541Y-80010000D01*
X113261627Y-79754698D01*
X113572696Y-79289151D01*
X113681929Y-78740000D01*
X113572696Y-78190849D01*
X113261627Y-77725302D01*
X112879541Y-77470000D01*
X113261627Y-77214698D01*
X113572696Y-76749151D01*
X113681929Y-76200000D01*
X113572696Y-75650849D01*
X113307393Y-75253795D01*
X131714716Y-75253795D01*
X131963106Y-75854943D01*
X132422637Y-76315278D01*
X133023352Y-76564716D01*
X133673795Y-76565284D01*
X134274943Y-76316894D01*
X134337196Y-76254749D01*
X134351673Y-76289699D01*
X134530302Y-76468327D01*
X134763691Y-76565000D01*
X135604250Y-76565000D01*
X135763000Y-76406250D01*
X135763000Y-75057000D01*
X136017000Y-75057000D01*
X136017000Y-76406250D01*
X136175750Y-76565000D01*
X137016309Y-76565000D01*
X137249698Y-76468327D01*
X137428327Y-76289699D01*
X137525000Y-76056310D01*
X137525000Y-75215750D01*
X137366250Y-75057000D01*
X136017000Y-75057000D01*
X135763000Y-75057000D01*
X135743000Y-75057000D01*
X135743000Y-74803000D01*
X135763000Y-74803000D01*
X135763000Y-73453750D01*
X136017000Y-73453750D01*
X136017000Y-74803000D01*
X137366250Y-74803000D01*
X137525000Y-74644250D01*
X137525000Y-73803690D01*
X137428327Y-73570301D01*
X137249698Y-73391673D01*
X137016309Y-73295000D01*
X136175750Y-73295000D01*
X136017000Y-73453750D01*
X135763000Y-73453750D01*
X135604250Y-73295000D01*
X134763691Y-73295000D01*
X134530302Y-73391673D01*
X134351673Y-73570301D01*
X134337369Y-73604833D01*
X134277363Y-73544722D01*
X133676648Y-73295284D01*
X133026205Y-73294716D01*
X132425057Y-73543106D01*
X131964722Y-74002637D01*
X131715284Y-74603352D01*
X131714716Y-75253795D01*
X113307393Y-75253795D01*
X113261627Y-75185302D01*
X112879541Y-74930000D01*
X113261627Y-74674698D01*
X113572696Y-74209151D01*
X113681929Y-73660000D01*
X113572696Y-73110849D01*
X113261627Y-72645302D01*
X112879541Y-72390000D01*
X113261627Y-72134698D01*
X113572696Y-71669151D01*
X113681929Y-71120000D01*
X113572696Y-70570849D01*
X113261627Y-70105302D01*
X112879541Y-69850000D01*
X113261627Y-69594698D01*
X113572696Y-69129151D01*
X113681929Y-68580000D01*
X113572696Y-68030849D01*
X113261627Y-67565302D01*
X112879541Y-67310000D01*
X113261627Y-67054698D01*
X113572696Y-66589151D01*
X113681929Y-66040000D01*
X113572696Y-65490849D01*
X113261627Y-65025302D01*
X112879541Y-64770000D01*
X113261627Y-64514698D01*
X113572696Y-64049151D01*
X113681929Y-63500000D01*
X113572696Y-62950849D01*
X113261627Y-62485302D01*
X112879541Y-62230000D01*
X113261627Y-61974698D01*
X113472956Y-61658422D01*
X133521183Y-61658422D01*
X133705371Y-61997970D01*
X134568509Y-62341316D01*
X135497336Y-62328218D01*
X136294629Y-61997970D01*
X136478817Y-61658422D01*
X135000000Y-60179605D01*
X133521183Y-61658422D01*
X113472956Y-61658422D01*
X113572696Y-61509151D01*
X113681929Y-60960000D01*
X113572696Y-60410849D01*
X113261627Y-59945302D01*
X112879541Y-59690000D01*
X113061364Y-59568509D01*
X132658684Y-59568509D01*
X132671782Y-60497336D01*
X133002030Y-61294629D01*
X133341578Y-61478817D01*
X134820395Y-60000000D01*
X135179605Y-60000000D01*
X136658422Y-61478817D01*
X136997970Y-61294629D01*
X137341316Y-60431491D01*
X137328218Y-59502664D01*
X136997970Y-58705371D01*
X136658422Y-58521183D01*
X135179605Y-60000000D01*
X134820395Y-60000000D01*
X133341578Y-58521183D01*
X133002030Y-58705371D01*
X132658684Y-59568509D01*
X113061364Y-59568509D01*
X113261627Y-59434698D01*
X113572696Y-58969151D01*
X113681929Y-58420000D01*
X113666330Y-58341578D01*
X133521183Y-58341578D01*
X135000000Y-59820395D01*
X136478817Y-58341578D01*
X136294629Y-58002030D01*
X135431491Y-57658684D01*
X134502664Y-57671782D01*
X133705371Y-58002030D01*
X133521183Y-58341578D01*
X113666330Y-58341578D01*
X113572696Y-57870849D01*
X113261627Y-57405302D01*
X112796080Y-57094233D01*
X112246929Y-56985000D01*
X111273071Y-56985000D01*
X110723920Y-57094233D01*
X110258373Y-57405302D01*
X109947304Y-57870849D01*
X109838071Y-58420000D01*
X98441929Y-58420000D01*
X98332696Y-57870849D01*
X98021627Y-57405302D01*
X97556080Y-57094233D01*
X97006929Y-56985000D01*
X96033071Y-56985000D01*
X95483920Y-57094233D01*
X95018373Y-57405302D01*
X94707304Y-57870849D01*
X94598071Y-58420000D01*
X83056964Y-58420000D01*
X83255869Y-58337611D01*
X83320169Y-58099774D01*
X82550000Y-57329605D01*
X81779831Y-58099774D01*
X71347651Y-58099774D01*
X71294629Y-58002030D01*
X70431491Y-57658684D01*
X69502664Y-57671782D01*
X68705371Y-58002030D01*
X68521183Y-58341578D01*
X65710000Y-58341578D01*
X65710000Y-56952342D01*
X81182667Y-56952342D01*
X81211108Y-57490644D01*
X81362389Y-57855869D01*
X81600226Y-57920169D01*
X82370395Y-57150000D01*
X82729605Y-57150000D01*
X83499774Y-57920169D01*
X83737611Y-57855869D01*
X83917333Y-57347658D01*
X83888892Y-56809356D01*
X83737611Y-56444131D01*
X83499774Y-56379831D01*
X82729605Y-57150000D01*
X82370395Y-57150000D01*
X81600226Y-56379831D01*
X81362389Y-56444131D01*
X81182667Y-56952342D01*
X65710000Y-56952342D01*
X65710000Y-56200226D01*
X81779831Y-56200226D01*
X82550000Y-56970395D01*
X83320169Y-56200226D01*
X83255869Y-55962389D01*
X82747658Y-55782667D01*
X82209356Y-55811108D01*
X81844131Y-55962389D01*
X81779831Y-56200226D01*
X65710000Y-56200226D01*
X65710000Y-55710000D01*
X139290000Y-55710000D01*
X139290000Y-129290000D01*
X139290000Y-129290000D01*
G37*
X139290000Y-129290000D02*
X65710000Y-129290000D01*
X65710000Y-126658422D01*
X68521183Y-126658422D01*
X68705371Y-126997970D01*
X69568509Y-127341316D01*
X70497336Y-127328218D01*
X71294629Y-126997970D01*
X71478817Y-126658422D01*
X133521183Y-126658422D01*
X133705371Y-126997970D01*
X134568509Y-127341316D01*
X135497336Y-127328218D01*
X136294629Y-126997970D01*
X136478817Y-126658422D01*
X135000000Y-125179605D01*
X133521183Y-126658422D01*
X71478817Y-126658422D01*
X70000000Y-125179605D01*
X68521183Y-126658422D01*
X65710000Y-126658422D01*
X65710000Y-124568509D01*
X67658684Y-124568509D01*
X67671782Y-125497336D01*
X68002030Y-126294629D01*
X68341578Y-126478817D01*
X69820395Y-125000000D01*
X70179605Y-125000000D01*
X71658422Y-126478817D01*
X71997970Y-126294629D01*
X72341316Y-125431491D01*
X72329147Y-124568509D01*
X132658684Y-124568509D01*
X132671782Y-125497336D01*
X133002030Y-126294629D01*
X133341578Y-126478817D01*
X134820395Y-125000000D01*
X135179605Y-125000000D01*
X136658422Y-126478817D01*
X136997970Y-126294629D01*
X137341316Y-125431491D01*
X137328218Y-124502664D01*
X136997970Y-123705371D01*
X136658422Y-123521183D01*
X135179605Y-125000000D01*
X134820395Y-125000000D01*
X133341578Y-123521183D01*
X133002030Y-123705371D01*
X132658684Y-124568509D01*
X72329147Y-124568509D01*
X72328218Y-124502664D01*
X71997970Y-123705371D01*
X71658422Y-123521183D01*
X70179605Y-125000000D01*
X69820395Y-125000000D01*
X68341578Y-123521183D01*
X68002030Y-123705371D01*
X67658684Y-124568509D01*
X65710000Y-124568509D01*
X65710000Y-123341578D01*
X68521183Y-123341578D01*
X70000000Y-124820395D01*
X71478817Y-123341578D01*
X133521183Y-123341578D01*
X135000000Y-124820395D01*
X136478817Y-123341578D01*
X136294629Y-123002030D01*
X135431491Y-122658684D01*
X134502664Y-122671782D01*
X133705371Y-123002030D01*
X133521183Y-123341578D01*
X71478817Y-123341578D01*
X71294629Y-123002030D01*
X70431491Y-122658684D01*
X69502664Y-122671782D01*
X68705371Y-123002030D01*
X68521183Y-123341578D01*
X65710000Y-123341578D01*
X65710000Y-110935750D01*
X72225000Y-110935750D01*
X72225000Y-112526309D01*
X72321673Y-112759698D01*
X72500301Y-112938327D01*
X72733690Y-113035000D01*
X73374250Y-113035000D01*
X73533000Y-112876250D01*
X73533000Y-110777000D01*
X73787000Y-110777000D01*
X73787000Y-112876250D01*
X73945750Y-113035000D01*
X74586310Y-113035000D01*
X74819699Y-112938327D01*
X74998327Y-112759698D01*
X75095000Y-112526309D01*
X75095000Y-110935750D01*
X74936250Y-110777000D01*
X73787000Y-110777000D01*
X73533000Y-110777000D01*
X72383750Y-110777000D01*
X72225000Y-110935750D01*
X65710000Y-110935750D01*
X65710000Y-108773691D01*
X72225000Y-108773691D01*
X72225000Y-110364250D01*
X72383750Y-110523000D01*
X73533000Y-110523000D01*
X73533000Y-108423750D01*
X73787000Y-108423750D01*
X73787000Y-110523000D01*
X74936250Y-110523000D01*
X75095000Y-110364250D01*
X75095000Y-108773691D01*
X74998327Y-108540302D01*
X74819699Y-108361673D01*
X74586310Y-108265000D01*
X73945750Y-108265000D01*
X73787000Y-108423750D01*
X73533000Y-108423750D01*
X73374250Y-108265000D01*
X72733690Y-108265000D01*
X72500301Y-108361673D01*
X72321673Y-108540302D01*
X72225000Y-108773691D01*
X65710000Y-108773691D01*
X65710000Y-103500000D01*
X72212560Y-103500000D01*
X72212560Y-107000000D01*
X72256838Y-107235317D01*
X72395910Y-107451441D01*
X72608110Y-107596431D01*
X72860000Y-107647440D01*
X74460000Y-107647440D01*
X74695317Y-107603162D01*
X74911441Y-107464090D01*
X75056431Y-107251890D01*
X75107440Y-107000000D01*
X75107440Y-106385000D01*
X79359062Y-106385000D01*
X79383110Y-106401431D01*
X79575000Y-106440290D01*
X79575000Y-106779868D01*
X79227434Y-107127434D01*
X78981397Y-107495654D01*
X78895000Y-107930000D01*
X78895000Y-109358156D01*
X78828559Y-109400910D01*
X78683569Y-109613110D01*
X78632560Y-109865000D01*
X78632560Y-111115000D01*
X78676838Y-111350317D01*
X78815910Y-111566441D01*
X79028110Y-111711431D01*
X79280000Y-111762440D01*
X80780000Y-111762440D01*
X81015317Y-111718162D01*
X81231441Y-111579090D01*
X81277969Y-111510994D01*
X81420302Y-111653327D01*
X81653691Y-111750000D01*
X82244250Y-111750000D01*
X82403000Y-111591250D01*
X82403000Y-110617000D01*
X82657000Y-110617000D01*
X82657000Y-111591250D01*
X82815750Y-111750000D01*
X83406309Y-111750000D01*
X83639698Y-111653327D01*
X83818327Y-111474699D01*
X83915000Y-111241310D01*
X83915000Y-110775750D01*
X84995000Y-110775750D01*
X84995000Y-111241310D01*
X85091673Y-111474699D01*
X85270302Y-111653327D01*
X85503691Y-111750000D01*
X86094250Y-111750000D01*
X86253000Y-111591250D01*
X86253000Y-110617000D01*
X85153750Y-110617000D01*
X84995000Y-110775750D01*
X83915000Y-110775750D01*
X83756250Y-110617000D01*
X82657000Y-110617000D01*
X82403000Y-110617000D01*
X82383000Y-110617000D01*
X82383000Y-110363000D01*
X82403000Y-110363000D01*
X82403000Y-109388750D01*
X82657000Y-109388750D01*
X82657000Y-110363000D01*
X83756250Y-110363000D01*
X83915000Y-110204250D01*
X83915000Y-109738690D01*
X84995000Y-109738690D01*
X84995000Y-110204250D01*
X85153750Y-110363000D01*
X86253000Y-110363000D01*
X86253000Y-109388750D01*
X86094250Y-109230000D01*
X85503691Y-109230000D01*
X85270302Y-109326673D01*
X85091673Y-109505301D01*
X84995000Y-109738690D01*
X83915000Y-109738690D01*
X83818327Y-109505301D01*
X83639698Y-109326673D01*
X83406309Y-109230000D01*
X82815750Y-109230000D01*
X82657000Y-109388750D01*
X82403000Y-109388750D01*
X82244250Y-109230000D01*
X81653691Y-109230000D01*
X81420302Y-109326673D01*
X81279064Y-109467910D01*
X81244090Y-109413559D01*
X81165000Y-109359519D01*
X81165000Y-108400132D01*
X81512566Y-108052566D01*
X81575335Y-107958625D01*
X81758603Y-107684346D01*
X81845000Y-107250000D01*
X81845000Y-106441150D01*
X82020317Y-106408162D01*
X82236441Y-106269090D01*
X82381431Y-106056890D01*
X82432440Y-105805000D01*
X82432440Y-104505000D01*
X82388162Y-104269683D01*
X82249090Y-104053559D01*
X82036890Y-103908569D01*
X81785000Y-103857560D01*
X79635000Y-103857560D01*
X79399683Y-103901838D01*
X79183559Y-104040910D01*
X79132935Y-104115000D01*
X75107440Y-104115000D01*
X75107440Y-103500000D01*
X75063162Y-103264683D01*
X74924090Y-103048559D01*
X74795000Y-102960356D01*
X74795000Y-99530132D01*
X75732566Y-98592566D01*
X75786020Y-98512566D01*
X75978603Y-98224346D01*
X76065000Y-97790000D01*
X76065000Y-94410854D01*
X76265317Y-94373162D01*
X76481441Y-94234090D01*
X76626431Y-94021890D01*
X76677440Y-93770000D01*
X76677440Y-91270000D01*
X76633162Y-91034683D01*
X76494090Y-90818559D01*
X76281890Y-90673569D01*
X76030000Y-90622560D01*
X73830000Y-90622560D01*
X73594683Y-90666838D01*
X73378559Y-90805910D01*
X73233569Y-91018110D01*
X73182560Y-91270000D01*
X73182560Y-93770000D01*
X73226838Y-94005317D01*
X73365910Y-94221441D01*
X73578110Y-94366431D01*
X73795000Y-94410352D01*
X73795000Y-97319868D01*
X72857434Y-98257434D01*
X72611397Y-98625654D01*
X72525000Y-99060000D01*
X72525000Y-102960982D01*
X72408559Y-103035910D01*
X72263569Y-103248110D01*
X72212560Y-103500000D01*
X65710000Y-103500000D01*
X65710000Y-86570000D01*
X73182560Y-86570000D01*
X73182560Y-89070000D01*
X73226838Y-89305317D01*
X73365910Y-89521441D01*
X73578110Y-89666431D01*
X73830000Y-89717440D01*
X76030000Y-89717440D01*
X76265317Y-89673162D01*
X76481441Y-89534090D01*
X76626431Y-89321890D01*
X76677440Y-89070000D01*
X76677440Y-86570000D01*
X76633162Y-86334683D01*
X76494090Y-86118559D01*
X76281890Y-85973569D01*
X76065000Y-85929648D01*
X76065000Y-82873795D01*
X78374716Y-82873795D01*
X78623106Y-83474943D01*
X78795000Y-83647138D01*
X78795000Y-86473156D01*
X78728559Y-86515910D01*
X78583569Y-86728110D01*
X78532560Y-86980000D01*
X78532560Y-88280000D01*
X78576838Y-88515317D01*
X78715910Y-88731441D01*
X78928110Y-88876431D01*
X79180000Y-88927440D01*
X80680000Y-88927440D01*
X80915317Y-88883162D01*
X81131441Y-88744090D01*
X81276431Y-88531890D01*
X81279081Y-88518803D01*
X81415910Y-88731441D01*
X81495000Y-88785481D01*
X81495000Y-89619868D01*
X80667434Y-90447434D01*
X80421397Y-90815654D01*
X80335000Y-91250000D01*
X80335000Y-92232560D01*
X80220000Y-92232560D01*
X79984683Y-92276838D01*
X79768559Y-92415910D01*
X79623569Y-92628110D01*
X79572560Y-92880000D01*
X79572560Y-95080000D01*
X79616838Y-95315317D01*
X79755910Y-95531441D01*
X79968110Y-95676431D01*
X80220000Y-95727440D01*
X80335000Y-95727440D01*
X80335000Y-97129868D01*
X79907434Y-97557434D01*
X79661397Y-97925654D01*
X79575000Y-98360000D01*
X79575000Y-99298850D01*
X79399683Y-99331838D01*
X79183559Y-99470910D01*
X79038569Y-99683110D01*
X78987560Y-99935000D01*
X78987560Y-101235000D01*
X79031838Y-101470317D01*
X79170910Y-101686441D01*
X79383110Y-101831431D01*
X79635000Y-101882440D01*
X81785000Y-101882440D01*
X82020317Y-101838162D01*
X82236441Y-101699090D01*
X82381431Y-101486890D01*
X82432440Y-101235000D01*
X82432440Y-99935000D01*
X82388162Y-99699683D01*
X82249090Y-99483559D01*
X82036890Y-99338569D01*
X81845000Y-99299710D01*
X81845000Y-98830132D01*
X82272566Y-98402566D01*
X82518603Y-98034346D01*
X82605000Y-97600000D01*
X82605000Y-95727440D01*
X82720000Y-95727440D01*
X82955317Y-95683162D01*
X83171441Y-95544090D01*
X83316431Y-95331890D01*
X83367440Y-95080000D01*
X83367440Y-92880000D01*
X83323162Y-92644683D01*
X83184090Y-92428559D01*
X82971890Y-92283569D01*
X82720000Y-92232560D01*
X82605000Y-92232560D01*
X82605000Y-91720132D01*
X83432566Y-90892566D01*
X83578895Y-90673569D01*
X83678603Y-90524346D01*
X83765000Y-90090000D01*
X83765000Y-88786844D01*
X83798946Y-88765000D01*
X85115025Y-88765000D01*
X85278110Y-88876431D01*
X85530000Y-88927440D01*
X87030000Y-88927440D01*
X87265317Y-88883162D01*
X87481441Y-88744090D01*
X87626431Y-88531890D01*
X87629081Y-88518803D01*
X87765910Y-88731441D01*
X87845000Y-88785481D01*
X87845000Y-92401850D01*
X87671890Y-92283569D01*
X87420000Y-92232560D01*
X84920000Y-92232560D01*
X84684683Y-92276838D01*
X84468559Y-92415910D01*
X84323569Y-92628110D01*
X84272560Y-92880000D01*
X84272560Y-95080000D01*
X84316838Y-95315317D01*
X84455910Y-95531441D01*
X84668110Y-95676431D01*
X84920000Y-95727440D01*
X87420000Y-95727440D01*
X87655317Y-95683162D01*
X87845000Y-95561104D01*
X87845000Y-97239868D01*
X86572434Y-98512434D01*
X86326397Y-98880654D01*
X86240000Y-99315000D01*
X86240000Y-99472560D01*
X84525000Y-99472560D01*
X84289683Y-99516838D01*
X84073559Y-99655910D01*
X83928569Y-99868110D01*
X83877560Y-100120000D01*
X83877560Y-105620000D01*
X83921838Y-105855317D01*
X84060910Y-106071441D01*
X84273110Y-106216431D01*
X84525000Y-106267440D01*
X86240000Y-106267440D01*
X86240000Y-106425000D01*
X86326397Y-106859346D01*
X86437789Y-107026055D01*
X86572434Y-107227566D01*
X87745000Y-108400132D01*
X87745000Y-109358156D01*
X87678559Y-109400910D01*
X87632031Y-109469006D01*
X87489698Y-109326673D01*
X87256309Y-109230000D01*
X86665750Y-109230000D01*
X86507000Y-109388750D01*
X86507000Y-110363000D01*
X86527000Y-110363000D01*
X86527000Y-110617000D01*
X86507000Y-110617000D01*
X86507000Y-111591250D01*
X86665750Y-111750000D01*
X87256309Y-111750000D01*
X87489698Y-111653327D01*
X87630936Y-111512090D01*
X87665910Y-111566441D01*
X87878110Y-111711431D01*
X88130000Y-111762440D01*
X89630000Y-111762440D01*
X89865317Y-111718162D01*
X90081441Y-111579090D01*
X90226431Y-111366890D01*
X90277440Y-111115000D01*
X90277440Y-109865000D01*
X90233162Y-109629683D01*
X90094090Y-109413559D01*
X90015000Y-109359519D01*
X90015000Y-108220000D01*
X100202560Y-108220000D01*
X100202560Y-110220000D01*
X100246838Y-110455317D01*
X100385910Y-110671441D01*
X100598110Y-110816431D01*
X100850000Y-110867440D01*
X102350000Y-110867440D01*
X102585317Y-110823162D01*
X102801441Y-110684090D01*
X102946431Y-110471890D01*
X102994782Y-110233126D01*
X103160657Y-110481375D01*
X103609983Y-110781605D01*
X104140000Y-110887032D01*
X104670017Y-110781605D01*
X105119343Y-110481375D01*
X105410000Y-110046376D01*
X105700657Y-110481375D01*
X106149983Y-110781605D01*
X106680000Y-110887032D01*
X107210017Y-110781605D01*
X107659343Y-110481375D01*
X107959573Y-110032049D01*
X108065000Y-109502032D01*
X108065000Y-108937968D01*
X107959573Y-108407951D01*
X107659343Y-107958625D01*
X107630446Y-107939317D01*
X107929964Y-107551721D01*
X108072739Y-107026055D01*
X107911868Y-106807000D01*
X106807000Y-106807000D01*
X106807000Y-106827000D01*
X106553000Y-106827000D01*
X106553000Y-106807000D01*
X106533000Y-106807000D01*
X106533000Y-106553000D01*
X106553000Y-106553000D01*
X106553000Y-105210344D01*
X106807000Y-105210344D01*
X106807000Y-106553000D01*
X107911868Y-106553000D01*
X108072739Y-106333945D01*
X107929964Y-105808279D01*
X107596894Y-105377264D01*
X107124235Y-105106519D01*
X107021185Y-105087682D01*
X106807000Y-105210344D01*
X106553000Y-105210344D01*
X106338815Y-105087682D01*
X106235765Y-105106519D01*
X105763106Y-105377264D01*
X105430036Y-105808279D01*
X105415489Y-105861839D01*
X105119343Y-105418625D01*
X104670017Y-105118395D01*
X104140000Y-105012968D01*
X103609983Y-105118395D01*
X103160657Y-105418625D01*
X102870000Y-105853624D01*
X102579343Y-105418625D01*
X102130017Y-105118395D01*
X101600000Y-105012968D01*
X101069983Y-105118395D01*
X100620657Y-105418625D01*
X100320427Y-105867951D01*
X100215000Y-106397968D01*
X100215000Y-106962032D01*
X100320427Y-107492049D01*
X100467214Y-107711732D01*
X100398559Y-107755910D01*
X100253569Y-107968110D01*
X100202560Y-108220000D01*
X90015000Y-108220000D01*
X90015000Y-107930000D01*
X89928603Y-107495654D01*
X89682566Y-107127434D01*
X88822572Y-106267440D01*
X90225000Y-106267440D01*
X90460317Y-106223162D01*
X90676441Y-106084090D01*
X90821431Y-105871890D01*
X90872440Y-105620000D01*
X90872440Y-104005000D01*
X91009146Y-104005000D01*
X91046838Y-104205317D01*
X91185910Y-104421441D01*
X91398110Y-104566431D01*
X91650000Y-104617440D01*
X94150000Y-104617440D01*
X94385317Y-104573162D01*
X94601441Y-104434090D01*
X94746431Y-104221890D01*
X94797440Y-103970000D01*
X94797440Y-101770000D01*
X95702560Y-101770000D01*
X95702560Y-103970000D01*
X95746838Y-104205317D01*
X95885910Y-104421441D01*
X96098110Y-104566431D01*
X96350000Y-104617440D01*
X98850000Y-104617440D01*
X99085317Y-104573162D01*
X99301441Y-104434090D01*
X99446431Y-104221890D01*
X99490352Y-104005000D01*
X100422796Y-104005000D01*
X100672637Y-104255278D01*
X101273352Y-104504716D01*
X101923795Y-104505284D01*
X102524943Y-104256894D01*
X102985278Y-103797363D01*
X103234716Y-103196648D01*
X103235284Y-102546205D01*
X102986894Y-101945057D01*
X102527363Y-101484722D01*
X101926648Y-101235284D01*
X101276205Y-101234716D01*
X100675057Y-101483106D01*
X100422722Y-101735000D01*
X99490854Y-101735000D01*
X99453162Y-101534683D01*
X99314090Y-101318559D01*
X99101890Y-101173569D01*
X98850000Y-101122560D01*
X96350000Y-101122560D01*
X96114683Y-101166838D01*
X95898559Y-101305910D01*
X95753569Y-101518110D01*
X95702560Y-101770000D01*
X94797440Y-101770000D01*
X94753162Y-101534683D01*
X94614090Y-101318559D01*
X94401890Y-101173569D01*
X94150000Y-101122560D01*
X91650000Y-101122560D01*
X91414683Y-101166838D01*
X91198559Y-101305910D01*
X91053569Y-101518110D01*
X91009648Y-101735000D01*
X90872440Y-101735000D01*
X90872440Y-100120000D01*
X90828162Y-99884683D01*
X90689090Y-99668559D01*
X90476890Y-99523569D01*
X90225000Y-99472560D01*
X88822572Y-99472560D01*
X89782566Y-98512566D01*
X89947051Y-98266397D01*
X90028603Y-98144346D01*
X90115000Y-97710000D01*
X90115000Y-93980000D01*
X94598071Y-93980000D01*
X94707304Y-94529151D01*
X95018373Y-94994698D01*
X95483920Y-95305767D01*
X96033071Y-95415000D01*
X97006929Y-95415000D01*
X97556080Y-95305767D01*
X98021627Y-94994698D01*
X98332696Y-94529151D01*
X98441929Y-93980000D01*
X98332696Y-93430849D01*
X98021627Y-92965302D01*
X97642738Y-92712136D01*
X98074500Y-92364896D01*
X98344367Y-91871819D01*
X98361904Y-91789039D01*
X98239915Y-91567000D01*
X96647000Y-91567000D01*
X96647000Y-91587000D01*
X96393000Y-91587000D01*
X96393000Y-91567000D01*
X94800085Y-91567000D01*
X94678096Y-91789039D01*
X94695633Y-91871819D01*
X94965500Y-92364896D01*
X95397262Y-92712136D01*
X95018373Y-92965302D01*
X94707304Y-93430849D01*
X94598071Y-93980000D01*
X90115000Y-93980000D01*
X90115000Y-88786844D01*
X90181441Y-88744090D01*
X90326431Y-88531890D01*
X90377440Y-88280000D01*
X90377440Y-86980000D01*
X90333162Y-86744683D01*
X90194090Y-86528559D01*
X89981890Y-86383569D01*
X89730000Y-86332560D01*
X88230000Y-86332560D01*
X87994683Y-86376838D01*
X87778559Y-86515910D01*
X87633569Y-86728110D01*
X87630919Y-86741197D01*
X87494090Y-86528559D01*
X87281890Y-86383569D01*
X87030000Y-86332560D01*
X85530000Y-86332560D01*
X85294683Y-86376838D01*
X85111054Y-86495000D01*
X83794975Y-86495000D01*
X83631890Y-86383569D01*
X83380000Y-86332560D01*
X81880000Y-86332560D01*
X81644683Y-86376838D01*
X81428559Y-86515910D01*
X81283569Y-86728110D01*
X81280919Y-86741197D01*
X81144090Y-86528559D01*
X81065000Y-86474519D01*
X81065000Y-83807064D01*
X81395278Y-83477363D01*
X81644716Y-82876648D01*
X81644718Y-82873795D01*
X88534716Y-82873795D01*
X88783106Y-83474943D01*
X89242637Y-83935278D01*
X89843352Y-84184716D01*
X90493795Y-84185284D01*
X91094943Y-83936894D01*
X91555278Y-83477363D01*
X91804716Y-82876648D01*
X91805284Y-82226205D01*
X91556894Y-81625057D01*
X91305000Y-81372722D01*
X91305000Y-79169018D01*
X91421441Y-79094090D01*
X91566431Y-78881890D01*
X91617440Y-78630000D01*
X91617440Y-75630000D01*
X91573162Y-75394683D01*
X91434090Y-75178559D01*
X91221890Y-75033569D01*
X90970000Y-74982560D01*
X89370000Y-74982560D01*
X89134683Y-75026838D01*
X88918559Y-75165910D01*
X88773569Y-75378110D01*
X88722560Y-75630000D01*
X88722560Y-78630000D01*
X88766838Y-78865317D01*
X88905910Y-79081441D01*
X89035000Y-79169644D01*
X89035000Y-81372796D01*
X88784722Y-81622637D01*
X88535284Y-82223352D01*
X88534716Y-82873795D01*
X81644718Y-82873795D01*
X81645284Y-82226205D01*
X81396894Y-81625057D01*
X80937363Y-81164722D01*
X80336648Y-80915284D01*
X79686205Y-80914716D01*
X79085057Y-81163106D01*
X78624722Y-81622637D01*
X78375284Y-82223352D01*
X78374716Y-82873795D01*
X76065000Y-82873795D01*
X76065000Y-79917204D01*
X76315278Y-79667363D01*
X76564716Y-79066648D01*
X76565284Y-78416205D01*
X76316894Y-77815057D01*
X75857363Y-77354722D01*
X75256648Y-77105284D01*
X74606205Y-77104716D01*
X74005057Y-77353106D01*
X73544722Y-77812637D01*
X73295284Y-78413352D01*
X73294716Y-79063795D01*
X73543106Y-79664943D01*
X73795000Y-79917278D01*
X73795000Y-85929146D01*
X73594683Y-85966838D01*
X73378559Y-86105910D01*
X73233569Y-86318110D01*
X73182560Y-86570000D01*
X65710000Y-86570000D01*
X65710000Y-81090159D01*
X68949446Y-81090159D01*
X69035852Y-81346643D01*
X69609336Y-81556458D01*
X70219460Y-81530839D01*
X70664148Y-81346643D01*
X70750554Y-81090159D01*
X69850000Y-80189605D01*
X68949446Y-81090159D01*
X65710000Y-81090159D01*
X65710000Y-76570000D01*
X68302560Y-76570000D01*
X68302560Y-78370000D01*
X68346838Y-78605317D01*
X68485910Y-78821441D01*
X68689574Y-78960598D01*
X68655282Y-78994890D01*
X68769839Y-79109447D01*
X68513357Y-79195852D01*
X68303542Y-79769336D01*
X68329161Y-80379460D01*
X68513357Y-80824148D01*
X68769841Y-80910554D01*
X69670395Y-80010000D01*
X69656253Y-79995858D01*
X69835858Y-79816253D01*
X69850000Y-79830395D01*
X69864143Y-79816253D01*
X70043748Y-79995858D01*
X70029605Y-80010000D01*
X70930159Y-80910554D01*
X71186643Y-80824148D01*
X71396458Y-80250664D01*
X71370839Y-79640540D01*
X71186643Y-79195852D01*
X70930161Y-79109447D01*
X71044718Y-78994890D01*
X71008240Y-78958412D01*
X71201441Y-78834090D01*
X71346431Y-78621890D01*
X71397440Y-78370000D01*
X71397440Y-76570000D01*
X71353162Y-76334683D01*
X71214090Y-76118559D01*
X71001890Y-75973569D01*
X70750000Y-75922560D01*
X68950000Y-75922560D01*
X68714683Y-75966838D01*
X68498559Y-76105910D01*
X68353569Y-76318110D01*
X68302560Y-76570000D01*
X65710000Y-76570000D01*
X65710000Y-73015750D01*
X88735000Y-73015750D01*
X88735000Y-74356309D01*
X88831673Y-74589698D01*
X89010301Y-74768327D01*
X89243690Y-74865000D01*
X89884250Y-74865000D01*
X90043000Y-74706250D01*
X90043000Y-72857000D01*
X90297000Y-72857000D01*
X90297000Y-74706250D01*
X90455750Y-74865000D01*
X91096310Y-74865000D01*
X91329699Y-74768327D01*
X91508327Y-74589698D01*
X91605000Y-74356309D01*
X91605000Y-73015750D01*
X91446250Y-72857000D01*
X90297000Y-72857000D01*
X90043000Y-72857000D01*
X88893750Y-72857000D01*
X88735000Y-73015750D01*
X65710000Y-73015750D01*
X65710000Y-71103691D01*
X88735000Y-71103691D01*
X88735000Y-72444250D01*
X88893750Y-72603000D01*
X90043000Y-72603000D01*
X90043000Y-70753750D01*
X90297000Y-70753750D01*
X90297000Y-72603000D01*
X91446250Y-72603000D01*
X91605000Y-72444250D01*
X91605000Y-71103691D01*
X91508327Y-70870302D01*
X91329699Y-70691673D01*
X91096310Y-70595000D01*
X90455750Y-70595000D01*
X90297000Y-70753750D01*
X90043000Y-70753750D01*
X89884250Y-70595000D01*
X89243690Y-70595000D01*
X89010301Y-70691673D01*
X88831673Y-70870302D01*
X88735000Y-71103691D01*
X65710000Y-71103691D01*
X65710000Y-62498344D01*
X81194765Y-62498344D01*
X81400617Y-62996543D01*
X81781452Y-63378043D01*
X82279291Y-63584764D01*
X82818344Y-63585235D01*
X83316543Y-63379383D01*
X83698043Y-62998548D01*
X83904764Y-62500709D01*
X83905235Y-61961656D01*
X83699383Y-61463457D01*
X83318548Y-61081957D01*
X83040884Y-60966661D01*
X83255869Y-60877611D01*
X83320169Y-60639774D01*
X82550000Y-59869605D01*
X81779831Y-60639774D01*
X81844131Y-60877611D01*
X82076172Y-60959669D01*
X81783457Y-61080617D01*
X81401957Y-61461452D01*
X81195236Y-61959291D01*
X81194765Y-62498344D01*
X65710000Y-62498344D01*
X65710000Y-61658422D01*
X68521183Y-61658422D01*
X68705371Y-61997970D01*
X69568509Y-62341316D01*
X70497336Y-62328218D01*
X71294629Y-61997970D01*
X71478817Y-61658422D01*
X70000000Y-60179605D01*
X68521183Y-61658422D01*
X65710000Y-61658422D01*
X65710000Y-59568509D01*
X67658684Y-59568509D01*
X67671782Y-60497336D01*
X68002030Y-61294629D01*
X68341578Y-61478817D01*
X69820395Y-60000000D01*
X70179605Y-60000000D01*
X71658422Y-61478817D01*
X71997970Y-61294629D01*
X72341316Y-60431491D01*
X72328218Y-59502664D01*
X72323943Y-59492342D01*
X81182667Y-59492342D01*
X81211108Y-60030644D01*
X81362389Y-60395869D01*
X81600226Y-60460169D01*
X82370395Y-59690000D01*
X82729605Y-59690000D01*
X83499774Y-60460169D01*
X83737611Y-60395869D01*
X83917333Y-59887658D01*
X83888892Y-59349356D01*
X83737611Y-58984131D01*
X83499774Y-58919831D01*
X82729605Y-59690000D01*
X82370395Y-59690000D01*
X81600226Y-58919831D01*
X81362389Y-58984131D01*
X81182667Y-59492342D01*
X72323943Y-59492342D01*
X71997970Y-58705371D01*
X71658422Y-58521183D01*
X70179605Y-60000000D01*
X69820395Y-60000000D01*
X68341578Y-58521183D01*
X68002030Y-58705371D01*
X67658684Y-59568509D01*
X65710000Y-59568509D01*
X65710000Y-58341578D01*
X68521183Y-58341578D01*
X70000000Y-59820395D01*
X71478817Y-58341578D01*
X71347651Y-58099774D01*
X81779831Y-58099774D01*
X81844131Y-58337611D01*
X82058728Y-58413500D01*
X81844131Y-58502389D01*
X81779831Y-58740226D01*
X82550000Y-59510395D01*
X83320169Y-58740226D01*
X83255869Y-58502389D01*
X83041272Y-58426500D01*
X83056964Y-58420000D01*
X94598071Y-58420000D01*
X94707304Y-58969151D01*
X95018373Y-59434698D01*
X95400459Y-59690000D01*
X95018373Y-59945302D01*
X94707304Y-60410849D01*
X94598071Y-60960000D01*
X94707304Y-61509151D01*
X95018373Y-61974698D01*
X95400459Y-62230000D01*
X95018373Y-62485302D01*
X94707304Y-62950849D01*
X94598071Y-63500000D01*
X94707304Y-64049151D01*
X95018373Y-64514698D01*
X95400459Y-64770000D01*
X95018373Y-65025302D01*
X94707304Y-65490849D01*
X94598071Y-66040000D01*
X94707304Y-66589151D01*
X95018373Y-67054698D01*
X95400459Y-67310000D01*
X95018373Y-67565302D01*
X94707304Y-68030849D01*
X94598071Y-68580000D01*
X94707304Y-69129151D01*
X95018373Y-69594698D01*
X95400459Y-69850000D01*
X95018373Y-70105302D01*
X94707304Y-70570849D01*
X94598071Y-71120000D01*
X94707304Y-71669151D01*
X95018373Y-72134698D01*
X95400459Y-72390000D01*
X95018373Y-72645302D01*
X94707304Y-73110849D01*
X94598071Y-73660000D01*
X94707304Y-74209151D01*
X95018373Y-74674698D01*
X95400459Y-74930000D01*
X95018373Y-75185302D01*
X94707304Y-75650849D01*
X94598071Y-76200000D01*
X94707304Y-76749151D01*
X95018373Y-77214698D01*
X95400459Y-77470000D01*
X95018373Y-77725302D01*
X94707304Y-78190849D01*
X94598071Y-78740000D01*
X94707304Y-79289151D01*
X95018373Y-79754698D01*
X95400459Y-80010000D01*
X95018373Y-80265302D01*
X94707304Y-80730849D01*
X94598071Y-81280000D01*
X94707304Y-81829151D01*
X95018373Y-82294698D01*
X95400459Y-82550000D01*
X95018373Y-82805302D01*
X94707304Y-83270849D01*
X94598071Y-83820000D01*
X94707304Y-84369151D01*
X95018373Y-84834698D01*
X95400459Y-85090000D01*
X95018373Y-85345302D01*
X94707304Y-85810849D01*
X94598071Y-86360000D01*
X94707304Y-86909151D01*
X95018373Y-87374698D01*
X95400459Y-87630000D01*
X95018373Y-87885302D01*
X94707304Y-88350849D01*
X94598071Y-88900000D01*
X94707304Y-89449151D01*
X95018373Y-89914698D01*
X95397262Y-90167864D01*
X94965500Y-90515104D01*
X94695633Y-91008181D01*
X94678096Y-91090961D01*
X94800085Y-91313000D01*
X96393000Y-91313000D01*
X96393000Y-91293000D01*
X96647000Y-91293000D01*
X96647000Y-91313000D01*
X98239915Y-91313000D01*
X98361904Y-91090961D01*
X98344367Y-91008181D01*
X98074500Y-90515104D01*
X97642738Y-90167864D01*
X98021627Y-89914698D01*
X98332696Y-89449151D01*
X98441929Y-88900000D01*
X109838071Y-88900000D01*
X109947304Y-89449151D01*
X110258373Y-89914698D01*
X110640459Y-90170000D01*
X110258373Y-90425302D01*
X109947304Y-90890849D01*
X109838071Y-91440000D01*
X109947304Y-91989151D01*
X110258373Y-92454698D01*
X110404587Y-92552395D01*
X110274683Y-92576838D01*
X110058559Y-92715910D01*
X109913569Y-92928110D01*
X109862560Y-93180000D01*
X109862560Y-94780000D01*
X109906838Y-95015317D01*
X110045910Y-95231441D01*
X110258110Y-95376431D01*
X110510000Y-95427440D01*
X113010000Y-95427440D01*
X113245317Y-95383162D01*
X113461441Y-95244090D01*
X113606431Y-95031890D01*
X113657440Y-94780000D01*
X113657440Y-93180000D01*
X113629930Y-93033795D01*
X131714716Y-93033795D01*
X131963106Y-93634943D01*
X132422637Y-94095278D01*
X133023352Y-94344716D01*
X133673795Y-94345284D01*
X134274943Y-94096894D01*
X134337196Y-94034749D01*
X134351673Y-94069699D01*
X134530302Y-94248327D01*
X134763691Y-94345000D01*
X135604250Y-94345000D01*
X135763000Y-94186250D01*
X135763000Y-92837000D01*
X136017000Y-92837000D01*
X136017000Y-94186250D01*
X136175750Y-94345000D01*
X137016309Y-94345000D01*
X137249698Y-94248327D01*
X137428327Y-94069699D01*
X137525000Y-93836310D01*
X137525000Y-92995750D01*
X137366250Y-92837000D01*
X136017000Y-92837000D01*
X135763000Y-92837000D01*
X135743000Y-92837000D01*
X135743000Y-92583000D01*
X135763000Y-92583000D01*
X135763000Y-91233750D01*
X136017000Y-91233750D01*
X136017000Y-92583000D01*
X137366250Y-92583000D01*
X137525000Y-92424250D01*
X137525000Y-91583690D01*
X137428327Y-91350301D01*
X137249698Y-91171673D01*
X137016309Y-91075000D01*
X136175750Y-91075000D01*
X136017000Y-91233750D01*
X135763000Y-91233750D01*
X135604250Y-91075000D01*
X134763691Y-91075000D01*
X134530302Y-91171673D01*
X134351673Y-91350301D01*
X134337369Y-91384833D01*
X134277363Y-91324722D01*
X133676648Y-91075284D01*
X133026205Y-91074716D01*
X132425057Y-91323106D01*
X131964722Y-91782637D01*
X131715284Y-92383352D01*
X131714716Y-93033795D01*
X113629930Y-93033795D01*
X113613162Y-92944683D01*
X113474090Y-92728559D01*
X113261890Y-92583569D01*
X113113677Y-92553555D01*
X113261627Y-92454698D01*
X113572696Y-91989151D01*
X113681929Y-91440000D01*
X113572696Y-90890849D01*
X113261627Y-90425302D01*
X112879541Y-90170000D01*
X113261627Y-89914698D01*
X113572696Y-89449151D01*
X113681929Y-88900000D01*
X113572696Y-88350849D01*
X113261627Y-87885302D01*
X112882738Y-87632136D01*
X113314500Y-87284896D01*
X113584367Y-86791819D01*
X113601904Y-86709039D01*
X113479915Y-86487000D01*
X111887000Y-86487000D01*
X111887000Y-86507000D01*
X111633000Y-86507000D01*
X111633000Y-86487000D01*
X110040085Y-86487000D01*
X109918096Y-86709039D01*
X109935633Y-86791819D01*
X110205500Y-87284896D01*
X110637262Y-87632136D01*
X110258373Y-87885302D01*
X109947304Y-88350849D01*
X109838071Y-88900000D01*
X98441929Y-88900000D01*
X98332696Y-88350849D01*
X98021627Y-87885302D01*
X97639541Y-87630000D01*
X98021627Y-87374698D01*
X98332696Y-86909151D01*
X98441929Y-86360000D01*
X98332696Y-85810849D01*
X98021627Y-85345302D01*
X97639541Y-85090000D01*
X98021627Y-84834698D01*
X98332696Y-84369151D01*
X98441929Y-83820000D01*
X98332696Y-83270849D01*
X98021627Y-82805302D01*
X97639541Y-82550000D01*
X98021627Y-82294698D01*
X98332696Y-81829151D01*
X98441929Y-81280000D01*
X98332696Y-80730849D01*
X98021627Y-80265302D01*
X97639541Y-80010000D01*
X98021627Y-79754698D01*
X98332696Y-79289151D01*
X98441929Y-78740000D01*
X98332696Y-78190849D01*
X98021627Y-77725302D01*
X97639541Y-77470000D01*
X98021627Y-77214698D01*
X98332696Y-76749151D01*
X98441929Y-76200000D01*
X98332696Y-75650849D01*
X98021627Y-75185302D01*
X97639541Y-74930000D01*
X98021627Y-74674698D01*
X98332696Y-74209151D01*
X98441929Y-73660000D01*
X98332696Y-73110849D01*
X98021627Y-72645302D01*
X97639541Y-72390000D01*
X98021627Y-72134698D01*
X98332696Y-71669151D01*
X98441929Y-71120000D01*
X98332696Y-70570849D01*
X98021627Y-70105302D01*
X97639541Y-69850000D01*
X98021627Y-69594698D01*
X98332696Y-69129151D01*
X98441929Y-68580000D01*
X98332696Y-68030849D01*
X98021627Y-67565302D01*
X97639541Y-67310000D01*
X98021627Y-67054698D01*
X98332696Y-66589151D01*
X98441929Y-66040000D01*
X98332696Y-65490849D01*
X98021627Y-65025302D01*
X97639541Y-64770000D01*
X98021627Y-64514698D01*
X98332696Y-64049151D01*
X98441929Y-63500000D01*
X98332696Y-62950849D01*
X98021627Y-62485302D01*
X97639541Y-62230000D01*
X98021627Y-61974698D01*
X98332696Y-61509151D01*
X98441929Y-60960000D01*
X98332696Y-60410849D01*
X98021627Y-59945302D01*
X97639541Y-59690000D01*
X98021627Y-59434698D01*
X98332696Y-58969151D01*
X98441929Y-58420000D01*
X109838071Y-58420000D01*
X109947304Y-58969151D01*
X110258373Y-59434698D01*
X110640459Y-59690000D01*
X110258373Y-59945302D01*
X109947304Y-60410849D01*
X109838071Y-60960000D01*
X109947304Y-61509151D01*
X110258373Y-61974698D01*
X110640459Y-62230000D01*
X110258373Y-62485302D01*
X109947304Y-62950849D01*
X109838071Y-63500000D01*
X109947304Y-64049151D01*
X110258373Y-64514698D01*
X110640459Y-64770000D01*
X110258373Y-65025302D01*
X109947304Y-65490849D01*
X109838071Y-66040000D01*
X109947304Y-66589151D01*
X110258373Y-67054698D01*
X110640459Y-67310000D01*
X110258373Y-67565302D01*
X109947304Y-68030849D01*
X109838071Y-68580000D01*
X109947304Y-69129151D01*
X110258373Y-69594698D01*
X110640459Y-69850000D01*
X110258373Y-70105302D01*
X109947304Y-70570849D01*
X109838071Y-71120000D01*
X109947304Y-71669151D01*
X110258373Y-72134698D01*
X110640459Y-72390000D01*
X110258373Y-72645302D01*
X109947304Y-73110849D01*
X109838071Y-73660000D01*
X109947304Y-74209151D01*
X110258373Y-74674698D01*
X110640459Y-74930000D01*
X110258373Y-75185302D01*
X109947304Y-75650849D01*
X109838071Y-76200000D01*
X109947304Y-76749151D01*
X110258373Y-77214698D01*
X110640459Y-77470000D01*
X110258373Y-77725302D01*
X109947304Y-78190849D01*
X109838071Y-78740000D01*
X109947304Y-79289151D01*
X110258373Y-79754698D01*
X110640459Y-80010000D01*
X110258373Y-80265302D01*
X109947304Y-80730849D01*
X109838071Y-81280000D01*
X109947304Y-81829151D01*
X110258373Y-82294698D01*
X110640459Y-82550000D01*
X110258373Y-82805302D01*
X109947304Y-83270849D01*
X109838071Y-83820000D01*
X109947304Y-84369151D01*
X110258373Y-84834698D01*
X110637262Y-85087864D01*
X110205500Y-85435104D01*
X109935633Y-85928181D01*
X109918096Y-86010961D01*
X110040085Y-86233000D01*
X111633000Y-86233000D01*
X111633000Y-86213000D01*
X111887000Y-86213000D01*
X111887000Y-86233000D01*
X113479915Y-86233000D01*
X113601904Y-86010961D01*
X113584367Y-85928181D01*
X113314500Y-85435104D01*
X112882738Y-85087864D01*
X113261627Y-84834698D01*
X113572696Y-84369151D01*
X113617522Y-84143795D01*
X131714716Y-84143795D01*
X131963106Y-84744943D01*
X132422637Y-85205278D01*
X133023352Y-85454716D01*
X133673795Y-85455284D01*
X134274943Y-85206894D01*
X134337196Y-85144749D01*
X134351673Y-85179699D01*
X134530302Y-85358327D01*
X134763691Y-85455000D01*
X135604250Y-85455000D01*
X135763000Y-85296250D01*
X135763000Y-83947000D01*
X136017000Y-83947000D01*
X136017000Y-85296250D01*
X136175750Y-85455000D01*
X137016309Y-85455000D01*
X137249698Y-85358327D01*
X137428327Y-85179699D01*
X137525000Y-84946310D01*
X137525000Y-84105750D01*
X137366250Y-83947000D01*
X136017000Y-83947000D01*
X135763000Y-83947000D01*
X135743000Y-83947000D01*
X135743000Y-83693000D01*
X135763000Y-83693000D01*
X135763000Y-82343750D01*
X136017000Y-82343750D01*
X136017000Y-83693000D01*
X137366250Y-83693000D01*
X137525000Y-83534250D01*
X137525000Y-82693690D01*
X137428327Y-82460301D01*
X137249698Y-82281673D01*
X137016309Y-82185000D01*
X136175750Y-82185000D01*
X136017000Y-82343750D01*
X135763000Y-82343750D01*
X135604250Y-82185000D01*
X134763691Y-82185000D01*
X134530302Y-82281673D01*
X134351673Y-82460301D01*
X134337369Y-82494833D01*
X134277363Y-82434722D01*
X133676648Y-82185284D01*
X133026205Y-82184716D01*
X132425057Y-82433106D01*
X131964722Y-82892637D01*
X131715284Y-83493352D01*
X131714716Y-84143795D01*
X113617522Y-84143795D01*
X113681929Y-83820000D01*
X113572696Y-83270849D01*
X113261627Y-82805302D01*
X112879541Y-82550000D01*
X113261627Y-82294698D01*
X113572696Y-81829151D01*
X113681929Y-81280000D01*
X113572696Y-80730849D01*
X113261627Y-80265302D01*
X112879541Y-80010000D01*
X113261627Y-79754698D01*
X113572696Y-79289151D01*
X113681929Y-78740000D01*
X113572696Y-78190849D01*
X113261627Y-77725302D01*
X112879541Y-77470000D01*
X113261627Y-77214698D01*
X113572696Y-76749151D01*
X113681929Y-76200000D01*
X113572696Y-75650849D01*
X113307393Y-75253795D01*
X131714716Y-75253795D01*
X131963106Y-75854943D01*
X132422637Y-76315278D01*
X133023352Y-76564716D01*
X133673795Y-76565284D01*
X134274943Y-76316894D01*
X134337196Y-76254749D01*
X134351673Y-76289699D01*
X134530302Y-76468327D01*
X134763691Y-76565000D01*
X135604250Y-76565000D01*
X135763000Y-76406250D01*
X135763000Y-75057000D01*
X136017000Y-75057000D01*
X136017000Y-76406250D01*
X136175750Y-76565000D01*
X137016309Y-76565000D01*
X137249698Y-76468327D01*
X137428327Y-76289699D01*
X137525000Y-76056310D01*
X137525000Y-75215750D01*
X137366250Y-75057000D01*
X136017000Y-75057000D01*
X135763000Y-75057000D01*
X135743000Y-75057000D01*
X135743000Y-74803000D01*
X135763000Y-74803000D01*
X135763000Y-73453750D01*
X136017000Y-73453750D01*
X136017000Y-74803000D01*
X137366250Y-74803000D01*
X137525000Y-74644250D01*
X137525000Y-73803690D01*
X137428327Y-73570301D01*
X137249698Y-73391673D01*
X137016309Y-73295000D01*
X136175750Y-73295000D01*
X136017000Y-73453750D01*
X135763000Y-73453750D01*
X135604250Y-73295000D01*
X134763691Y-73295000D01*
X134530302Y-73391673D01*
X134351673Y-73570301D01*
X134337369Y-73604833D01*
X134277363Y-73544722D01*
X133676648Y-73295284D01*
X133026205Y-73294716D01*
X132425057Y-73543106D01*
X131964722Y-74002637D01*
X131715284Y-74603352D01*
X131714716Y-75253795D01*
X113307393Y-75253795D01*
X113261627Y-75185302D01*
X112879541Y-74930000D01*
X113261627Y-74674698D01*
X113572696Y-74209151D01*
X113681929Y-73660000D01*
X113572696Y-73110849D01*
X113261627Y-72645302D01*
X112879541Y-72390000D01*
X113261627Y-72134698D01*
X113572696Y-71669151D01*
X113681929Y-71120000D01*
X113572696Y-70570849D01*
X113261627Y-70105302D01*
X112879541Y-69850000D01*
X113261627Y-69594698D01*
X113572696Y-69129151D01*
X113681929Y-68580000D01*
X113572696Y-68030849D01*
X113261627Y-67565302D01*
X112879541Y-67310000D01*
X113261627Y-67054698D01*
X113572696Y-66589151D01*
X113681929Y-66040000D01*
X113572696Y-65490849D01*
X113261627Y-65025302D01*
X112879541Y-64770000D01*
X113261627Y-64514698D01*
X113572696Y-64049151D01*
X113681929Y-63500000D01*
X113572696Y-62950849D01*
X113261627Y-62485302D01*
X112879541Y-62230000D01*
X113261627Y-61974698D01*
X113472956Y-61658422D01*
X133521183Y-61658422D01*
X133705371Y-61997970D01*
X134568509Y-62341316D01*
X135497336Y-62328218D01*
X136294629Y-61997970D01*
X136478817Y-61658422D01*
X135000000Y-60179605D01*
X133521183Y-61658422D01*
X113472956Y-61658422D01*
X113572696Y-61509151D01*
X113681929Y-60960000D01*
X113572696Y-60410849D01*
X113261627Y-59945302D01*
X112879541Y-59690000D01*
X113061364Y-59568509D01*
X132658684Y-59568509D01*
X132671782Y-60497336D01*
X133002030Y-61294629D01*
X133341578Y-61478817D01*
X134820395Y-60000000D01*
X135179605Y-60000000D01*
X136658422Y-61478817D01*
X136997970Y-61294629D01*
X137341316Y-60431491D01*
X137328218Y-59502664D01*
X136997970Y-58705371D01*
X136658422Y-58521183D01*
X135179605Y-60000000D01*
X134820395Y-60000000D01*
X133341578Y-58521183D01*
X133002030Y-58705371D01*
X132658684Y-59568509D01*
X113061364Y-59568509D01*
X113261627Y-59434698D01*
X113572696Y-58969151D01*
X113681929Y-58420000D01*
X113666330Y-58341578D01*
X133521183Y-58341578D01*
X135000000Y-59820395D01*
X136478817Y-58341578D01*
X136294629Y-58002030D01*
X135431491Y-57658684D01*
X134502664Y-57671782D01*
X133705371Y-58002030D01*
X133521183Y-58341578D01*
X113666330Y-58341578D01*
X113572696Y-57870849D01*
X113261627Y-57405302D01*
X112796080Y-57094233D01*
X112246929Y-56985000D01*
X111273071Y-56985000D01*
X110723920Y-57094233D01*
X110258373Y-57405302D01*
X109947304Y-57870849D01*
X109838071Y-58420000D01*
X98441929Y-58420000D01*
X98332696Y-57870849D01*
X98021627Y-57405302D01*
X97556080Y-57094233D01*
X97006929Y-56985000D01*
X96033071Y-56985000D01*
X95483920Y-57094233D01*
X95018373Y-57405302D01*
X94707304Y-57870849D01*
X94598071Y-58420000D01*
X83056964Y-58420000D01*
X83255869Y-58337611D01*
X83320169Y-58099774D01*
X82550000Y-57329605D01*
X81779831Y-58099774D01*
X71347651Y-58099774D01*
X71294629Y-58002030D01*
X70431491Y-57658684D01*
X69502664Y-57671782D01*
X68705371Y-58002030D01*
X68521183Y-58341578D01*
X65710000Y-58341578D01*
X65710000Y-56952342D01*
X81182667Y-56952342D01*
X81211108Y-57490644D01*
X81362389Y-57855869D01*
X81600226Y-57920169D01*
X82370395Y-57150000D01*
X82729605Y-57150000D01*
X83499774Y-57920169D01*
X83737611Y-57855869D01*
X83917333Y-57347658D01*
X83888892Y-56809356D01*
X83737611Y-56444131D01*
X83499774Y-56379831D01*
X82729605Y-57150000D01*
X82370395Y-57150000D01*
X81600226Y-56379831D01*
X81362389Y-56444131D01*
X81182667Y-56952342D01*
X65710000Y-56952342D01*
X65710000Y-56200226D01*
X81779831Y-56200226D01*
X82550000Y-56970395D01*
X83320169Y-56200226D01*
X83255869Y-55962389D01*
X82747658Y-55782667D01*
X82209356Y-55811108D01*
X81844131Y-55962389D01*
X81779831Y-56200226D01*
X65710000Y-56200226D01*
X65710000Y-55710000D01*
X139290000Y-55710000D01*
X139290000Y-129290000D01*
M02*
