M48
;DRILL file {KiCad 4.0.7} date 04/23/18 15:12:27
;FORMAT={-:-/ absolute / inch / decimal}
FMAT,2
INCH,TZ
T1C0.031
T2C0.039
T3C0.059
%
G90
G05
M72
T1
X4.8839Y-2.9248
X4.8839Y-3.1248
X4.9839Y-2.9248
X5.0839Y-2.9248
X5.4839Y-4.5748
X5.6839Y-4.5748
X6.1839Y-3.8748
X6.4839Y-3.2248
X6.5339Y-2.4248
X6.8339Y-2.9748
X7.0839Y-3.7748
X7.5839Y-3.7748
T2
X4.9213Y-2.3622
X4.9213Y-4.9213
X5.5339Y-2.3748
X5.5339Y-2.4748
X5.8839Y-2.3748
X5.8839Y-2.4748
X6.2339Y-2.3748
X6.2339Y-2.4748
X6.3339Y-3.5748
X6.3339Y-3.6748
X6.3339Y-3.7748
X6.3339Y-3.8748
X6.3339Y-3.9748
X6.3339Y-4.0748
X6.3339Y-4.1748
X6.3339Y-4.2748
X6.3339Y-4.3748
X6.3339Y-4.4748
X6.3339Y-4.5748
X6.3339Y-4.6748
X6.3339Y-4.7748
X6.3339Y-4.8748
X6.3339Y-4.9748
X6.6339Y-2.5248
X6.6339Y-2.6248
X6.7339Y-2.5248
X6.7339Y-2.6248
X6.8339Y-2.5248
X6.8339Y-2.6248
X6.9339Y-3.5748
X6.9339Y-3.6748
X6.9339Y-3.7748
X6.9339Y-3.8748
X6.9339Y-3.9748
X6.9339Y-4.0748
X6.9339Y-4.1748
X6.9339Y-4.2748
X6.9339Y-4.3748
X6.9339Y-4.4748
X6.9339Y-4.5748
X6.9339Y-4.6748
X6.9339Y-4.7748
X6.9339Y-4.8748
X6.9339Y-4.9748
X7.4803Y-2.3622
X7.4803Y-4.9213
T3
X5.4839Y-4.8248
X5.6839Y-4.8248
T0
M30
